<?xml version="1.0" encoding="UTF-8" standalone="no"?>
<!-- Created with Inkscape (http://www.inkscape.org/) -->

<svg
   width="146.463mm"
   height="146.27mm"
   viewBox="0 0 146.463 146.27"
   version="1.1"
   id="svg5"
   inkscape:version="1.1.2 (b8e25be833, 2022-02-05)"
   sodipodi:docname="iwetec_instagram.svg"
   xmlns:inkscape="http://www.inkscape.org/namespaces/inkscape"
   xmlns:sodipodi="http://sodipodi.sourceforge.net/DTD/sodipodi-0.dtd"
   xmlns="http://www.w3.org/2000/svg"
   xmlns:svg="http://www.w3.org/2000/svg">
  <sodipodi:namedview
     id="namedview7"
     pagecolor="#ffffff"
     bordercolor="#666666"
     borderopacity="1.0"
     inkscape:pageshadow="2"
     inkscape:pageopacity="0.0"
     inkscape:pagecheckerboard="0"
     inkscape:document-units="mm"
     showgrid="false"
     inkscape:zoom="0.69664703"
     inkscape:cx="-104.78764"
     inkscape:cy="561.25984"
     inkscape:window-width="2880"
     inkscape:window-height="1526"
     inkscape:window-x="2869"
     inkscape:window-y="-11"
     inkscape:window-maximized="1"
     inkscape:current-layer="g57"
     height="200mm"
     width="146.463mm" />
  <defs
     id="defs2" />
  <g
     inkscape:label="Layer 1"
     inkscape:groupmode="layer"
     id="layer1">
    <g
       id="g57"
       transform="matrix(0.35277777,0,0,-0.35277777,173.49736,143.27899)">
      <g
         id="g41"
         transform="translate(-233.68459,198.36457)">
        <path
           d="m 0,0 c 0,-26.776 -21.576,-48.478 -48.185,-48.478 -26.609,0 -48.185,21.702 -48.185,48.478 0,26.766 21.576,48.468 48.185,48.468 C -21.576,48.468 0,26.766 0,0"
           style="fill:#1a1a1a;fill-opacity:1;fill-rule:nonzero;stroke:none"
           id="path43" />
      </g>
      <g
         id="g45"
         transform="translate(-209.0994,255.9222)">
        <path
           d="m 0,0 c -8.398,0 -15.202,6.815 -15.202,15.212 0,8.398 6.804,15.202 15.202,15.202 8.408,0 15.212,-6.804 15.212,-15.202 C 15.212,6.815 8.408,0 0,0 m -72.77,-126.899 c -38.068,0 -69.048,31.106 -69.048,69.341 0,38.225 30.98,69.332 69.048,69.332 38.078,0 69.048,-31.107 69.048,-69.332 0,-38.235 -30.97,-69.341 -69.048,-69.341 M 40.762,1.94 c -0.692,28.841 -25.183,53.343 -54.024,54.035 -19.836,0.419 -39.672,0.629 -59.508,0.629 -19.836,0 -39.661,-0.21 -59.497,-0.629 -28.842,-0.692 -53.343,-25.194 -54.035,-54.035 -0.839,-39.662 -0.839,-79.333 0,-119.005 0.692,-28.842 25.193,-53.343 54.035,-54.035 19.836,-0.42 39.661,-0.629 59.497,-0.629 19.836,0 39.672,0.209 59.508,0.629 28.841,0.692 53.332,25.193 54.024,54.035 0.849,39.672 0.849,79.343 0,119.005 M 0,0 c -8.398,0 -15.202,6.815 -15.202,15.212 0,8.398 6.804,15.202 15.202,15.202 8.408,0 15.212,-6.804 15.212,-15.202 C 15.212,6.815 8.408,0 0,0 m -72.77,-126.899 c -38.068,0 -69.048,31.106 -69.048,69.341 0,38.225 30.98,69.332 69.048,69.332 38.078,0 69.048,-31.107 69.048,-69.332 0,-38.235 -30.97,-69.341 -69.048,-69.341 M 40.762,1.94 c -0.692,28.841 -25.183,53.343 -54.024,54.035 -19.836,0.419 -39.672,0.629 -59.508,0.629 -19.836,0 -39.661,-0.21 -59.497,-0.629 -28.842,-0.692 -53.343,-25.194 -54.035,-54.035 -0.839,-39.662 -0.839,-79.333 0,-119.005 0.692,-28.842 25.193,-53.343 54.035,-54.035 19.836,-0.42 39.661,-0.629 59.497,-0.629 19.836,0 39.672,0.209 59.508,0.629 28.841,0.692 53.332,25.193 54.024,54.035 0.849,39.672 0.849,79.343 0,119.005 M 0,0 c -8.398,0 -15.202,6.815 -15.202,15.212 0,8.398 6.804,15.202 15.202,15.202 8.408,0 15.212,-6.804 15.212,-15.202 C 15.212,6.815 8.408,0 0,0 m -72.77,-126.899 c -38.068,0 -69.048,31.106 -69.048,69.341 0,38.225 30.98,69.332 69.048,69.332 38.078,0 69.048,-31.107 69.048,-69.332 0,-38.235 -30.97,-69.341 -69.048,-69.341 M 40.762,1.94 c -0.692,28.841 -25.183,53.343 -54.024,54.035 -19.836,0.419 -39.672,0.629 -59.508,0.629 -19.836,0 -39.661,-0.21 -59.497,-0.629 -28.842,-0.692 -53.343,-25.194 -54.035,-54.035 -0.839,-39.662 -0.839,-79.333 0,-119.005 0.692,-28.842 25.193,-53.343 54.035,-54.035 19.836,-0.42 39.661,-0.629 59.497,-0.629 19.836,0 39.672,0.209 59.508,0.629 28.841,0.692 53.332,25.193 54.024,54.035 0.849,39.672 0.849,79.343 0,119.005 M 0,0 c -8.398,0 -15.202,6.815 -15.202,15.212 0,8.398 6.804,15.202 15.202,15.202 8.408,0 15.212,-6.804 15.212,-15.202 C 15.212,6.815 8.408,0 0,0 m -72.77,-126.899 c -38.068,0 -69.048,31.106 -69.048,69.341 0,38.225 30.98,69.332 69.048,69.332 38.078,0 69.048,-31.107 69.048,-69.332 0,-38.235 -30.97,-69.341 -69.048,-69.341 M 40.762,1.94 c -0.692,28.841 -25.183,53.343 -54.024,54.035 -19.836,0.419 -39.672,0.629 -59.508,0.629 -19.836,0 -39.661,-0.21 -59.497,-0.629 -28.842,-0.692 -53.343,-25.194 -54.035,-54.035 -0.839,-39.662 -0.839,-79.333 0,-119.005 0.692,-28.842 25.193,-53.343 54.035,-54.035 19.836,-0.42 39.661,-0.629 59.497,-0.629 19.836,0 39.672,0.209 59.508,0.629 28.841,0.692 53.332,25.193 54.024,54.035 0.849,39.672 0.849,79.343 0,119.005 M 0,0 c -8.398,0 -15.202,6.815 -15.202,15.212 0,8.398 6.804,15.202 15.202,15.202 8.408,0 15.212,-6.804 15.212,-15.202 C 15.212,6.815 8.408,0 0,0 m -72.77,-126.899 c -38.068,0 -69.048,31.106 -69.048,69.341 0,38.225 30.98,69.332 69.048,69.332 38.078,0 69.048,-31.107 69.048,-69.332 0,-38.235 -30.97,-69.341 -69.048,-69.341 M 40.762,1.94 c -0.692,28.841 -25.183,53.343 -54.024,54.035 -19.836,0.419 -39.672,0.629 -59.508,0.629 -19.836,0 -39.661,-0.21 -59.497,-0.629 -28.842,-0.692 -53.343,-25.194 -54.035,-54.035 -0.839,-39.662 -0.839,-79.333 0,-119.005 0.692,-28.842 25.193,-53.343 54.035,-54.035 19.836,-0.42 39.661,-0.629 59.497,-0.629 19.836,0 39.672,0.209 59.508,0.629 28.841,0.692 53.332,25.193 54.024,54.035 0.849,39.672 0.849,79.343 0,119.005 M 0,0 c -8.398,0 -15.202,6.815 -15.202,15.212 0,8.398 6.804,15.202 15.202,15.202 8.408,0 15.212,-6.804 15.212,-15.202 C 15.212,6.815 8.408,0 0,0 m -72.77,-126.899 c -38.068,0 -69.048,31.106 -69.048,69.341 0,38.225 30.98,69.332 69.048,69.332 38.078,0 69.048,-31.107 69.048,-69.332 0,-38.235 -30.97,-69.341 -69.048,-69.341 M 40.762,1.94 c -0.692,28.841 -25.183,53.343 -54.024,54.035 -19.836,0.419 -39.672,0.629 -59.508,0.629 -19.836,0 -39.661,-0.21 -59.497,-0.629 -28.842,-0.692 -53.343,-25.194 -54.035,-54.035 -0.839,-39.662 -0.839,-79.333 0,-119.005 0.692,-28.842 25.193,-53.343 54.035,-54.035 19.836,-0.42 39.661,-0.629 59.497,-0.629 19.836,0 39.672,0.209 59.508,0.629 28.841,0.692 53.332,25.193 54.024,54.035 0.849,39.672 0.849,79.343 0,119.005 M 0,0 c -8.398,0 -15.202,6.815 -15.202,15.212 0,8.398 6.804,15.202 15.202,15.202 8.408,0 15.212,-6.804 15.212,-15.202 C 15.212,6.815 8.408,0 0,0 m -72.77,-126.899 c -38.068,0 -69.048,31.106 -69.048,69.341 0,38.225 30.98,69.332 69.048,69.332 38.078,0 69.048,-31.107 69.048,-69.332 0,-38.235 -30.97,-69.341 -69.048,-69.341 M 40.762,1.94 c -0.692,28.841 -25.183,53.343 -54.024,54.035 -19.836,0.419 -39.672,0.629 -59.508,0.629 -19.836,0 -39.661,-0.21 -59.497,-0.629 -28.842,-0.692 -53.343,-25.194 -54.035,-54.035 -0.839,-39.662 -0.839,-79.333 0,-119.005 0.692,-28.842 25.193,-53.343 54.035,-54.035 19.836,-0.42 39.661,-0.629 59.497,-0.629 19.836,0 39.672,0.209 59.508,0.629 28.841,0.692 53.332,25.193 54.024,54.035 0.849,39.672 0.849,79.343 0,119.005 M 0,0 c -8.398,0 -15.202,6.815 -15.202,15.212 0,8.398 6.804,15.202 15.202,15.202 8.408,0 15.212,-6.804 15.212,-15.202 C 15.212,6.815 8.408,0 0,0 m -72.77,-126.899 c -38.068,0 -69.048,31.106 -69.048,69.341 0,38.225 30.98,69.332 69.048,69.332 38.078,0 69.048,-31.107 69.048,-69.332 0,-38.235 -30.97,-69.341 -69.048,-69.341 M 40.762,1.94 c -0.692,28.841 -25.183,53.343 -54.024,54.035 -19.836,0.419 -39.672,0.629 -59.508,0.629 -19.836,0 -39.661,-0.21 -59.497,-0.629 -28.842,-0.692 -53.343,-25.194 -54.035,-54.035 -0.839,-39.662 -0.839,-79.333 0,-119.005 0.692,-28.842 25.193,-53.343 54.035,-54.035 19.836,-0.42 39.661,-0.629 59.497,-0.629 19.836,0 39.672,0.209 59.508,0.629 28.841,0.692 53.332,25.193 54.024,54.035 0.849,39.672 0.849,79.343 0,119.005 M 0,0 c -8.398,0 -15.202,6.815 -15.202,15.212 0,8.398 6.804,15.202 15.202,15.202 8.408,0 15.212,-6.804 15.212,-15.202 C 15.212,6.815 8.408,0 0,0 m -72.77,-126.899 c -38.068,0 -69.048,31.106 -69.048,69.341 0,38.225 30.98,69.332 69.048,69.332 38.078,0 69.048,-31.107 69.048,-69.332 0,-38.235 -30.97,-69.341 -69.048,-69.341 M 40.762,1.94 c -0.692,28.841 -25.183,53.343 -54.024,54.035 -19.836,0.419 -39.672,0.629 -59.508,0.629 -19.836,0 -39.661,-0.21 -59.497,-0.629 -28.842,-0.692 -53.343,-25.194 -54.035,-54.035 -0.839,-39.662 -0.839,-79.333 0,-119.005 0.692,-28.842 25.193,-53.343 54.035,-54.035 19.836,-0.42 39.661,-0.629 59.497,-0.629 19.836,0 39.672,0.209 59.508,0.629 28.841,0.692 53.332,25.193 54.024,54.035 0.849,39.672 0.849,79.343 0,119.005 M 0,0 c -8.398,0 -15.202,6.815 -15.202,15.212 0,8.398 6.804,15.202 15.202,15.202 8.408,0 15.212,-6.804 15.212,-15.202 C 15.212,6.815 8.408,0 0,0 m -72.77,-126.899 c -38.068,0 -69.048,31.106 -69.048,69.341 0,38.225 30.98,69.332 69.048,69.332 38.078,0 69.048,-31.107 69.048,-69.332 0,-38.235 -30.97,-69.341 -69.048,-69.341 M 40.762,1.94 c -0.692,28.841 -25.183,53.343 -54.024,54.035 -19.836,0.419 -39.672,0.629 -59.508,0.629 -19.836,0 -39.661,-0.21 -59.497,-0.629 -28.842,-0.692 -53.343,-25.194 -54.035,-54.035 -0.839,-39.662 -0.839,-79.333 0,-119.005 0.692,-28.842 25.193,-53.343 54.035,-54.035 19.836,-0.42 39.661,-0.629 59.497,-0.629 19.836,0 39.672,0.209 59.508,0.629 28.841,0.692 53.332,25.193 54.024,54.035 0.849,39.672 0.849,79.343 0,119.005 M 0,0 c -8.398,0 -15.202,6.815 -15.202,15.212 0,8.398 6.804,15.202 15.202,15.202 8.408,0 15.212,-6.804 15.212,-15.202 C 15.212,6.815 8.408,0 0,0 m -72.77,-126.899 c -38.068,0 -69.048,31.106 -69.048,69.341 0,38.225 30.98,69.332 69.048,69.332 38.078,0 69.048,-31.107 69.048,-69.332 0,-38.235 -30.97,-69.341 -69.048,-69.341 M 40.762,1.94 c -0.692,28.841 -25.183,53.343 -54.024,54.035 -19.836,0.419 -39.672,0.629 -59.508,0.629 -19.836,0 -39.661,-0.21 -59.497,-0.629 -28.842,-0.692 -53.343,-25.194 -54.035,-54.035 -0.839,-39.662 -0.839,-79.333 0,-119.005 0.692,-28.842 25.193,-53.343 54.035,-54.035 19.836,-0.42 39.661,-0.629 59.497,-0.629 19.836,0 39.672,0.209 59.508,0.629 28.841,0.692 53.332,25.193 54.024,54.035 0.849,39.672 0.849,79.343 0,119.005 M 0,0 c -8.398,0 -15.202,6.815 -15.202,15.212 0,8.398 6.804,15.202 15.202,15.202 8.408,0 15.212,-6.804 15.212,-15.202 C 15.212,6.815 8.408,0 0,0 m -72.77,-126.899 c -38.068,0 -69.048,31.106 -69.048,69.341 0,38.225 30.98,69.332 69.048,69.332 38.078,0 69.048,-31.107 69.048,-69.332 0,-38.235 -30.97,-69.341 -69.048,-69.341 M 40.762,1.94 c -0.692,28.841 -25.183,53.343 -54.024,54.035 -19.836,0.419 -39.672,0.629 -59.508,0.629 -19.836,0 -39.661,-0.21 -59.497,-0.629 -28.842,-0.692 -53.343,-25.194 -54.035,-54.035 -0.839,-39.662 -0.839,-79.333 0,-119.005 0.692,-28.842 25.193,-53.343 54.035,-54.035 19.836,-0.42 39.661,-0.629 59.497,-0.629 19.836,0 39.672,0.209 59.508,0.629 28.841,0.692 53.332,25.193 54.024,54.035 0.849,39.672 0.849,79.343 0,119.005 M 0,0 c -8.398,0 -15.202,6.815 -15.202,15.212 0,8.398 6.804,15.202 15.202,15.202 8.408,0 15.212,-6.804 15.212,-15.202 C 15.212,6.815 8.408,0 0,0 m -72.77,-126.899 c -38.068,0 -69.048,31.106 -69.048,69.341 0,38.225 30.98,69.332 69.048,69.332 38.078,0 69.048,-31.107 69.048,-69.332 0,-38.235 -30.97,-69.341 -69.048,-69.341 M 40.762,1.94 c -0.692,28.841 -25.183,53.343 -54.024,54.035 -19.836,0.419 -39.672,0.629 -59.508,0.629 -19.836,0 -39.661,-0.21 -59.497,-0.629 -28.842,-0.692 -53.343,-25.194 -54.035,-54.035 -0.839,-39.662 -0.839,-79.333 0,-119.005 0.692,-28.842 25.193,-53.343 54.035,-54.035 19.836,-0.42 39.661,-0.629 59.497,-0.629 19.836,0 39.672,0.209 59.508,0.629 28.841,0.692 53.332,25.193 54.024,54.035 0.849,39.672 0.849,79.343 0,119.005 M 0,0 c -8.398,0 -15.202,6.815 -15.202,15.212 0,8.398 6.804,15.202 15.202,15.202 8.408,0 15.212,-6.804 15.212,-15.202 C 15.212,6.815 8.408,0 0,0 m -72.77,-126.899 c -38.068,0 -69.048,31.106 -69.048,69.341 0,38.225 30.98,69.332 69.048,69.332 38.078,0 69.048,-31.107 69.048,-69.332 0,-38.235 -30.97,-69.341 -69.048,-69.341 M 40.762,1.94 c -0.692,28.841 -25.183,53.343 -54.024,54.035 -19.836,0.419 -39.672,0.629 -59.508,0.629 -19.836,0 -39.661,-0.21 -59.497,-0.629 -28.842,-0.692 -53.343,-25.194 -54.035,-54.035 -0.839,-39.662 -0.839,-79.333 0,-119.005 0.692,-28.842 25.193,-53.343 54.035,-54.035 19.836,-0.42 39.661,-0.629 59.497,-0.629 19.836,0 39.672,0.209 59.508,0.629 28.841,0.692 53.332,25.193 54.024,54.035 0.849,39.672 0.849,79.343 0,119.005 M 0,0 c -8.398,0 -15.202,6.815 -15.202,15.212 0,8.398 6.804,15.202 15.202,15.202 8.408,0 15.212,-6.804 15.212,-15.202 C 15.212,6.815 8.408,0 0,0 m -72.77,-126.899 c -38.068,0 -69.048,31.106 -69.048,69.341 0,38.225 30.98,69.332 69.048,69.332 38.078,0 69.048,-31.107 69.048,-69.332 0,-38.235 -30.97,-69.341 -69.048,-69.341 M 40.762,1.94 c -0.692,28.841 -25.183,53.343 -54.024,54.035 -19.836,0.419 -39.672,0.629 -59.508,0.629 -19.836,0 -39.661,-0.21 -59.497,-0.629 -28.842,-0.692 -53.343,-25.194 -54.035,-54.035 -0.839,-39.662 -0.839,-79.333 0,-119.005 0.692,-28.842 25.193,-53.343 54.035,-54.035 19.836,-0.42 39.661,-0.629 59.497,-0.629 19.836,0 39.672,0.209 59.508,0.629 28.841,0.692 53.332,25.193 54.024,54.035 0.849,39.672 0.849,79.343 0,119.005 M 0,0 c -8.398,0 -15.202,6.815 -15.202,15.212 0,8.398 6.804,15.202 15.202,15.202 8.408,0 15.212,-6.804 15.212,-15.202 C 15.212,6.815 8.408,0 0,0 m -72.77,-126.899 c -38.068,0 -69.048,31.106 -69.048,69.341 0,38.225 30.98,69.332 69.048,69.332 38.078,0 69.048,-31.107 69.048,-69.332 0,-38.235 -30.97,-69.341 -69.048,-69.341 M 40.762,1.94 c -0.692,28.841 -25.183,53.343 -54.024,54.035 -19.836,0.419 -39.672,0.629 -59.508,0.629 -19.836,0 -39.661,-0.21 -59.497,-0.629 -28.842,-0.692 -53.343,-25.194 -54.035,-54.035 -0.839,-39.662 -0.839,-79.333 0,-119.005 0.692,-28.842 25.193,-53.343 54.035,-54.035 19.836,-0.42 39.661,-0.629 59.497,-0.629 19.836,0 39.672,0.209 59.508,0.629 28.841,0.692 53.332,25.193 54.024,54.035 0.849,39.672 0.849,79.343 0,119.005 M 0,0 c -8.398,0 -15.202,6.815 -15.202,15.212 0,8.398 6.804,15.202 15.202,15.202 8.408,0 15.212,-6.804 15.212,-15.202 C 15.212,6.815 8.408,0 0,0 m -72.77,-126.899 c -38.068,0 -69.048,31.106 -69.048,69.341 0,38.225 30.98,69.332 69.048,69.332 38.078,0 69.048,-31.107 69.048,-69.332 0,-38.235 -30.97,-69.341 -69.048,-69.341 M 40.762,1.94 c -0.692,28.841 -25.183,53.343 -54.024,54.035 -19.836,0.419 -39.672,0.629 -59.508,0.629 -19.836,0 -39.661,-0.21 -59.497,-0.629 -28.842,-0.692 -53.343,-25.194 -54.035,-54.035 -0.839,-39.662 -0.839,-79.333 0,-119.005 0.692,-28.842 25.193,-53.343 54.035,-54.035 19.836,-0.42 39.661,-0.629 59.497,-0.629 19.836,0 39.672,0.209 59.508,0.629 28.841,0.692 53.332,25.193 54.024,54.035 0.849,39.672 0.849,79.343 0,119.005 M 0,0 c -8.398,0 -15.202,6.815 -15.202,15.212 0,8.398 6.804,15.202 15.202,15.202 8.408,0 15.212,-6.804 15.212,-15.202 C 15.212,6.815 8.408,0 0,0 m -72.77,-126.899 c -38.068,0 -69.048,31.106 -69.048,69.341 0,38.225 30.98,69.332 69.048,69.332 38.078,0 69.048,-31.107 69.048,-69.332 0,-38.235 -30.97,-69.341 -69.048,-69.341 M 40.762,1.94 c -0.692,28.841 -25.183,53.343 -54.024,54.035 -19.836,0.419 -39.672,0.629 -59.508,0.629 -19.836,0 -39.661,-0.21 -59.497,-0.629 -28.842,-0.692 -53.343,-25.194 -54.035,-54.035 -0.839,-39.662 -0.839,-79.333 0,-119.005 0.692,-28.842 25.193,-53.343 54.035,-54.035 19.836,-0.42 39.661,-0.629 59.497,-0.629 19.836,0 39.672,0.209 59.508,0.629 28.841,0.692 53.332,25.193 54.024,54.035 0.849,39.672 0.849,79.343 0,119.005 M 0,0 c -8.398,0 -15.202,6.815 -15.202,15.212 0,8.398 6.804,15.202 15.202,15.202 8.408,0 15.212,-6.804 15.212,-15.202 C 15.212,6.815 8.408,0 0,0 m -72.77,-126.899 c -38.068,0 -69.048,31.106 -69.048,69.341 0,38.225 30.98,69.332 69.048,69.332 38.078,0 69.048,-31.107 69.048,-69.332 0,-38.235 -30.97,-69.341 -69.048,-69.341 M 40.762,1.94 c -0.692,28.841 -25.183,53.343 -54.024,54.035 -19.836,0.419 -39.672,0.629 -59.508,0.629 -19.836,0 -39.661,-0.21 -59.497,-0.629 -28.842,-0.692 -53.343,-25.194 -54.035,-54.035 -0.839,-39.662 -0.839,-79.333 0,-119.005 0.692,-28.842 25.193,-53.343 54.035,-54.035 19.836,-0.42 39.661,-0.629 59.497,-0.629 19.836,0 39.672,0.209 59.508,0.629 28.841,0.692 53.332,25.193 54.024,54.035 0.849,39.672 0.849,79.343 0,119.005 M 0,0 c -8.398,0 -15.202,6.815 -15.202,15.212 0,8.398 6.804,15.202 15.202,15.202 8.408,0 15.212,-6.804 15.212,-15.202 C 15.212,6.815 8.408,0 0,0 m -72.77,-126.899 c -38.068,0 -69.048,31.106 -69.048,69.341 0,38.225 30.98,69.332 69.048,69.332 38.078,0 69.048,-31.107 69.048,-69.332 0,-38.235 -30.97,-69.341 -69.048,-69.341 M 40.762,1.94 c -0.692,28.841 -25.183,53.343 -54.024,54.035 -19.836,0.419 -39.672,0.629 -59.508,0.629 -19.836,0 -39.661,-0.21 -59.497,-0.629 -28.842,-0.692 -53.343,-25.194 -54.035,-54.035 -0.839,-39.662 -0.839,-79.333 0,-119.005 0.692,-28.842 25.193,-53.343 54.035,-54.035 19.836,-0.42 39.661,-0.629 59.497,-0.629 19.836,0 39.672,0.209 59.508,0.629 28.841,0.692 53.332,25.193 54.024,54.035 0.849,39.672 0.849,79.343 0,119.005 M 0,0 c -8.398,0 -15.202,6.815 -15.202,15.212 0,8.398 6.804,15.202 15.202,15.202 8.408,0 15.212,-6.804 15.212,-15.202 C 15.212,6.815 8.408,0 0,0 m -72.77,-126.899 c -38.068,0 -69.048,31.106 -69.048,69.341 0,38.225 30.98,69.332 69.048,69.332 38.078,0 69.048,-31.107 69.048,-69.332 0,-38.235 -30.97,-69.341 -69.048,-69.341 M 40.762,1.94 c -0.692,28.841 -25.183,53.343 -54.024,54.035 -19.836,0.419 -39.672,0.629 -59.508,0.629 -19.836,0 -39.661,-0.21 -59.497,-0.629 -28.842,-0.692 -53.343,-25.194 -54.035,-54.035 -0.839,-39.662 -0.839,-79.333 0,-119.005 0.692,-28.842 25.193,-53.343 54.035,-54.035 19.836,-0.42 39.661,-0.629 59.497,-0.629 19.836,0 39.672,0.209 59.508,0.629 28.841,0.692 53.332,25.193 54.024,54.035 0.849,39.672 0.849,79.343 0,119.005 M 0,0 c -8.398,0 -15.202,6.815 -15.202,15.212 0,8.398 6.804,15.202 15.202,15.202 8.408,0 15.212,-6.804 15.212,-15.202 C 15.212,6.815 8.408,0 0,0 m -72.77,-126.899 c -38.068,0 -69.048,31.106 -69.048,69.341 0,38.225 30.98,69.332 69.048,69.332 38.078,0 69.048,-31.107 69.048,-69.332 0,-38.235 -30.97,-69.341 -69.048,-69.341 M 40.762,1.94 c -0.692,28.841 -25.183,53.343 -54.024,54.035 -19.836,0.419 -39.672,0.629 -59.508,0.629 -19.836,0 -39.661,-0.21 -59.497,-0.629 -28.842,-0.692 -53.343,-25.194 -54.035,-54.035 -0.839,-39.662 -0.839,-79.333 0,-119.005 0.692,-28.842 25.193,-53.343 54.035,-54.035 19.836,-0.42 39.661,-0.629 59.497,-0.629 19.836,0 39.672,0.209 59.508,0.629 28.841,0.692 53.332,25.193 54.024,54.035 0.849,39.672 0.849,79.343 0,119.005 M 0,0 c -8.398,0 -15.202,6.815 -15.202,15.212 0,8.398 6.804,15.202 15.202,15.202 8.408,0 15.212,-6.804 15.212,-15.202 C 15.212,6.815 8.408,0 0,0 m -72.77,-126.899 c -38.068,0 -69.048,31.106 -69.048,69.341 0,38.225 30.98,69.332 69.048,69.332 38.078,0 69.048,-31.107 69.048,-69.332 0,-38.235 -30.97,-69.341 -69.048,-69.341 M 40.762,1.94 c -0.692,28.841 -25.183,53.343 -54.024,54.035 -19.836,0.419 -39.672,0.629 -59.508,0.629 -19.836,0 -39.661,-0.21 -59.497,-0.629 -28.842,-0.692 -53.343,-25.194 -54.035,-54.035 -0.839,-39.662 -0.839,-79.333 0,-119.005 0.692,-28.842 25.193,-53.343 54.035,-54.035 19.836,-0.42 39.661,-0.629 59.497,-0.629 19.836,0 39.672,0.209 59.508,0.629 28.841,0.692 53.332,25.193 54.024,54.035 0.849,39.672 0.849,79.343 0,119.005 M 0,0 c -8.398,0 -15.202,6.815 -15.202,15.212 0,8.398 6.804,15.202 15.202,15.202 8.408,0 15.212,-6.804 15.212,-15.202 C 15.212,6.815 8.408,0 0,0 m -72.77,-126.899 c -38.068,0 -69.048,31.106 -69.048,69.341 0,38.225 30.98,69.332 69.048,69.332 38.078,0 69.048,-31.107 69.048,-69.332 0,-38.235 -30.97,-69.341 -69.048,-69.341 M 40.762,1.94 c -0.692,28.841 -25.183,53.343 -54.024,54.035 -19.836,0.419 -39.672,0.629 -59.508,0.629 -19.836,0 -39.661,-0.21 -59.497,-0.629 -28.842,-0.692 -53.343,-25.194 -54.035,-54.035 -0.839,-39.662 -0.839,-79.333 0,-119.005 0.692,-28.842 25.193,-53.343 54.035,-54.035 19.836,-0.42 39.661,-0.629 59.497,-0.629 19.836,0 39.672,0.209 59.508,0.629 28.841,0.692 53.332,25.193 54.024,54.035 0.849,39.672 0.849,79.343 0,119.005 M 0,0 c -8.398,0 -15.202,6.815 -15.202,15.212 0,8.398 6.804,15.202 15.202,15.202 8.408,0 15.212,-6.804 15.212,-15.202 C 15.212,6.815 8.408,0 0,0 m -72.77,-126.899 c -38.068,0 -69.048,31.106 -69.048,69.341 0,38.225 30.98,69.332 69.048,69.332 38.078,0 69.048,-31.107 69.048,-69.332 0,-38.235 -30.97,-69.341 -69.048,-69.341 M 40.762,1.94 c -0.692,28.841 -25.183,53.343 -54.024,54.035 -19.836,0.419 -39.672,0.629 -59.508,0.629 -19.836,0 -39.661,-0.21 -59.497,-0.629 -28.842,-0.692 -53.343,-25.194 -54.035,-54.035 -0.839,-39.662 -0.839,-79.333 0,-119.005 0.692,-28.842 25.193,-53.343 54.035,-54.035 19.836,-0.42 39.661,-0.629 59.497,-0.629 19.836,0 39.672,0.209 59.508,0.629 28.841,0.692 53.332,25.193 54.024,54.035 0.849,39.672 0.849,79.343 0,119.005 M 0,0 c -8.398,0 -15.202,6.815 -15.202,15.212 0,8.398 6.804,15.202 15.202,15.202 8.408,0 15.212,-6.804 15.212,-15.202 C 15.212,6.815 8.408,0 0,0 m -72.77,-126.899 c -38.068,0 -69.048,31.106 -69.048,69.341 0,38.225 30.98,69.332 69.048,69.332 38.078,0 69.048,-31.107 69.048,-69.332 0,-38.235 -30.97,-69.341 -69.048,-69.341 M 40.762,1.94 c -0.692,28.841 -25.183,53.343 -54.024,54.035 -19.836,0.419 -39.672,0.629 -59.508,0.629 -19.836,0 -39.661,-0.21 -59.497,-0.629 -28.842,-0.692 -53.343,-25.194 -54.035,-54.035 -0.839,-39.662 -0.839,-79.333 0,-119.005 0.692,-28.842 25.193,-53.343 54.035,-54.035 19.836,-0.42 39.661,-0.629 59.497,-0.629 19.836,0 39.672,0.209 59.508,0.629 28.841,0.692 53.332,25.193 54.024,54.035 0.849,39.672 0.849,79.343 0,119.005 M 0,0 c -8.398,0 -15.202,6.815 -15.202,15.212 0,8.398 6.804,15.202 15.202,15.202 8.408,0 15.212,-6.804 15.212,-15.202 C 15.212,6.815 8.408,0 0,0 m -72.77,-126.899 c -38.068,0 -69.048,31.106 -69.048,69.341 0,38.225 30.98,69.332 69.048,69.332 38.078,0 69.048,-31.107 69.048,-69.332 0,-38.235 -30.97,-69.341 -69.048,-69.341 M 40.762,1.94 c -0.692,28.841 -25.183,53.343 -54.024,54.035 -19.836,0.419 -39.672,0.629 -59.508,0.629 -19.836,0 -39.661,-0.21 -59.497,-0.629 -28.842,-0.692 -53.343,-25.194 -54.035,-54.035 -0.839,-39.662 -0.839,-79.333 0,-119.005 0.692,-28.842 25.193,-53.343 54.035,-54.035 19.836,-0.42 39.661,-0.629 59.497,-0.629 19.836,0 39.672,0.209 59.508,0.629 28.841,0.692 53.332,25.193 54.024,54.035 0.849,39.672 0.849,79.343 0,119.005 M 0,0 c -8.398,0 -15.202,6.815 -15.202,15.212 0,8.398 6.804,15.202 15.202,15.202 8.408,0 15.212,-6.804 15.212,-15.202 C 15.212,6.815 8.408,0 0,0 m -72.77,-126.899 c -38.068,0 -69.048,31.106 -69.048,69.341 0,38.225 30.98,69.332 69.048,69.332 38.078,0 69.048,-31.107 69.048,-69.332 0,-38.235 -30.97,-69.341 -69.048,-69.341 M 40.762,1.94 c -0.692,28.841 -25.183,53.343 -54.024,54.035 -19.836,0.419 -39.672,0.629 -59.508,0.629 -19.836,0 -39.661,-0.21 -59.497,-0.629 -28.842,-0.692 -53.343,-25.194 -54.035,-54.035 -0.839,-39.662 -0.839,-79.333 0,-119.005 0.692,-28.842 25.193,-53.343 54.035,-54.035 19.836,-0.42 39.661,-0.629 59.497,-0.629 19.836,0 39.672,0.209 59.508,0.629 28.841,0.692 53.332,25.193 54.024,54.035 0.849,39.672 0.849,79.343 0,119.005 M 0,0 c -8.398,0 -15.202,6.815 -15.202,15.212 0,8.398 6.804,15.202 15.202,15.202 8.408,0 15.212,-6.804 15.212,-15.202 C 15.212,6.815 8.408,0 0,0 m -72.77,-126.899 c -38.068,0 -69.048,31.106 -69.048,69.341 0,38.225 30.98,69.332 69.048,69.332 38.078,0 69.048,-31.107 69.048,-69.332 0,-38.235 -30.97,-69.341 -69.048,-69.341 m 59.508,182.874 c -19.836,0.419 -39.672,0.629 -59.508,0.629 -19.836,0 -39.661,-0.21 -59.497,-0.629 -28.842,-0.692 -53.343,-25.194 -54.035,-54.035 -0.839,-39.662 -0.839,-79.333 0,-119.005 0.692,-28.842 25.193,-53.343 54.035,-54.035 19.836,-0.42 39.661,-0.629 59.497,-0.629 19.836,0 39.672,0.209 59.508,0.629 28.841,0.692 53.332,25.193 54.024,54.035 0.849,39.672 0.849,79.343 0,119.005 -0.692,28.841 -25.183,53.343 -54.024,54.035 m 74.887,-173.481 v -0.063 c -0.471,-19.322 -8.481,-37.732 -22.561,-51.822 -14.091,-14.08 -32.491,-22.101 -51.823,-22.562 h -0.063 c -19.888,-0.419 -40.06,-0.64 -59.948,-0.64 -19.888,0 -40.049,0.221 -59.948,0.64 h -0.053 c -19.332,0.461 -37.742,8.482 -51.822,22.562 -14.091,14.09 -22.101,32.49 -22.562,51.822 v 0.063 c -0.849,39.777 -0.849,80.109 0,119.896 v 0.053 c 0.461,19.333 8.471,37.732 22.562,51.823 14.09,14.09 32.49,22.1 51.822,22.562 h 0.032 l 0.021,0.01 c 19.888,0.419 40.06,0.629 59.948,0.629 19.899,0 40.06,-0.21 59.948,-0.629 l 0.031,-0.01 h 0.032 C 6.573,76.366 24.973,68.356 39.064,54.266 53.144,40.175 61.164,21.776 61.625,2.443 V 2.39 c 0.85,-39.776 0.85,-80.119 0,-119.896 M -72.77,150.027 c -114.644,0 -207.585,-92.941 -207.585,-207.585 0,-114.654 92.941,-207.585 207.585,-207.585 114.644,0 207.585,92.931 207.585,207.585 0,114.644 -92.941,207.585 -207.585,207.585 M 0,0 c -8.398,0 -15.202,6.815 -15.202,15.212 0,8.398 6.804,15.202 15.202,15.202 8.408,0 15.212,-6.804 15.212,-15.202 C 15.212,6.815 8.408,0 0,0 m -72.77,-126.899 c -38.068,0 -69.048,31.106 -69.048,69.341 0,38.225 30.98,69.332 69.048,69.332 38.078,0 69.048,-31.107 69.048,-69.332 0,-38.235 -30.97,-69.341 -69.048,-69.341 M 40.762,1.94 c -0.692,28.841 -25.183,53.343 -54.024,54.035 -19.836,0.419 -39.672,0.629 -59.508,0.629 -19.836,0 -39.661,-0.21 -59.497,-0.629 -28.842,-0.692 -53.343,-25.194 -54.035,-54.035 -0.839,-39.662 -0.839,-79.333 0,-119.005 0.692,-28.842 25.193,-53.343 54.035,-54.035 19.836,-0.42 39.661,-0.629 59.497,-0.629 19.836,0 39.672,0.209 59.508,0.629 28.841,0.692 53.332,25.193 54.024,54.035 0.849,39.672 0.849,79.343 0,119.005 M 0,0 c -8.398,0 -15.202,6.815 -15.202,15.212 0,8.398 6.804,15.202 15.202,15.202 8.408,0 15.212,-6.804 15.212,-15.202 C 15.212,6.815 8.408,0 0,0 m -72.77,-126.899 c -38.068,0 -69.048,31.106 -69.048,69.341 0,38.225 30.98,69.332 69.048,69.332 38.078,0 69.048,-31.107 69.048,-69.332 0,-38.235 -30.97,-69.341 -69.048,-69.341 M 40.762,1.94 c -0.692,28.841 -25.183,53.343 -54.024,54.035 -19.836,0.419 -39.672,0.629 -59.508,0.629 -19.836,0 -39.661,-0.21 -59.497,-0.629 -28.842,-0.692 -53.343,-25.194 -54.035,-54.035 -0.839,-39.662 -0.839,-79.333 0,-119.005 0.692,-28.842 25.193,-53.343 54.035,-54.035 19.836,-0.42 39.661,-0.629 59.497,-0.629 19.836,0 39.672,0.209 59.508,0.629 28.841,0.692 53.332,25.193 54.024,54.035 0.849,39.672 0.849,79.343 0,119.005 M 0,0 c -8.398,0 -15.202,6.815 -15.202,15.212 0,8.398 6.804,15.202 15.202,15.202 8.408,0 15.212,-6.804 15.212,-15.202 C 15.212,6.815 8.408,0 0,0 m -72.77,-126.899 c -38.068,0 -69.048,31.106 -69.048,69.341 0,38.225 30.98,69.332 69.048,69.332 38.078,0 69.048,-31.107 69.048,-69.332 0,-38.235 -30.97,-69.341 -69.048,-69.341 M 40.762,1.94 c -0.692,28.841 -25.183,53.343 -54.024,54.035 -19.836,0.419 -39.672,0.629 -59.508,0.629 -19.836,0 -39.661,-0.21 -59.497,-0.629 -28.842,-0.692 -53.343,-25.194 -54.035,-54.035 -0.839,-39.662 -0.839,-79.333 0,-119.005 0.692,-28.842 25.193,-53.343 54.035,-54.035 19.836,-0.42 39.661,-0.629 59.497,-0.629 19.836,0 39.672,0.209 59.508,0.629 28.841,0.692 53.332,25.193 54.024,54.035 0.849,39.672 0.849,79.343 0,119.005 M 0,0 c -8.398,0 -15.202,6.815 -15.202,15.212 0,8.398 6.804,15.202 15.202,15.202 8.408,0 15.212,-6.804 15.212,-15.202 C 15.212,6.815 8.408,0 0,0 m -72.77,-126.899 c -38.068,0 -69.048,31.106 -69.048,69.341 0,38.225 30.98,69.332 69.048,69.332 38.078,0 69.048,-31.107 69.048,-69.332 0,-38.235 -30.97,-69.341 -69.048,-69.341 M 40.762,1.94 c -0.692,28.841 -25.183,53.343 -54.024,54.035 -19.836,0.419 -39.672,0.629 -59.508,0.629 -19.836,0 -39.661,-0.21 -59.497,-0.629 -28.842,-0.692 -53.343,-25.194 -54.035,-54.035 -0.839,-39.662 -0.839,-79.333 0,-119.005 0.692,-28.842 25.193,-53.343 54.035,-54.035 19.836,-0.42 39.661,-0.629 59.497,-0.629 19.836,0 39.672,0.209 59.508,0.629 28.841,0.692 53.332,25.193 54.024,54.035 0.849,39.672 0.849,79.343 0,119.005 M 0,0 c -8.398,0 -15.202,6.815 -15.202,15.212 0,8.398 6.804,15.202 15.202,15.202 8.408,0 15.212,-6.804 15.212,-15.202 C 15.212,6.815 8.408,0 0,0 m -72.77,-126.899 c -38.068,0 -69.048,31.106 -69.048,69.341 0,38.225 30.98,69.332 69.048,69.332 38.078,0 69.048,-31.107 69.048,-69.332 0,-38.235 -30.97,-69.341 -69.048,-69.341 M 40.762,1.94 c -0.692,28.841 -25.183,53.343 -54.024,54.035 -19.836,0.419 -39.672,0.629 -59.508,0.629 -19.836,0 -39.661,-0.21 -59.497,-0.629 -28.842,-0.692 -53.343,-25.194 -54.035,-54.035 -0.839,-39.662 -0.839,-79.333 0,-119.005 0.692,-28.842 25.193,-53.343 54.035,-54.035 19.836,-0.42 39.661,-0.629 59.497,-0.629 19.836,0 39.672,0.209 59.508,0.629 28.841,0.692 53.332,25.193 54.024,54.035 0.849,39.672 0.849,79.343 0,119.005 M 0,0 c -8.398,0 -15.202,6.815 -15.202,15.212 0,8.398 6.804,15.202 15.202,15.202 8.408,0 15.212,-6.804 15.212,-15.202 C 15.212,6.815 8.408,0 0,0 m -72.77,-126.899 c -38.068,0 -69.048,31.106 -69.048,69.341 0,38.225 30.98,69.332 69.048,69.332 38.078,0 69.048,-31.107 69.048,-69.332 0,-38.235 -30.97,-69.341 -69.048,-69.341 M 40.762,1.94 c -0.692,28.841 -25.183,53.343 -54.024,54.035 -19.836,0.419 -39.672,0.629 -59.508,0.629 -19.836,0 -39.661,-0.21 -59.497,-0.629 -28.842,-0.692 -53.343,-25.194 -54.035,-54.035 -0.839,-39.662 -0.839,-79.333 0,-119.005 0.692,-28.842 25.193,-53.343 54.035,-54.035 19.836,-0.42 39.661,-0.629 59.497,-0.629 19.836,0 39.672,0.209 59.508,0.629 28.841,0.692 53.332,25.193 54.024,54.035 0.849,39.672 0.849,79.343 0,119.005 M 0,0 c -8.398,0 -15.202,6.815 -15.202,15.212 0,8.398 6.804,15.202 15.202,15.202 8.408,0 15.212,-6.804 15.212,-15.202 C 15.212,6.815 8.408,0 0,0 m -72.77,-126.899 c -38.068,0 -69.048,31.106 -69.048,69.341 0,38.225 30.98,69.332 69.048,69.332 38.078,0 69.048,-31.107 69.048,-69.332 0,-38.235 -30.97,-69.341 -69.048,-69.341 M 40.762,1.94 c -0.692,28.841 -25.183,53.343 -54.024,54.035 -19.836,0.419 -39.672,0.629 -59.508,0.629 -19.836,0 -39.661,-0.21 -59.497,-0.629 -28.842,-0.692 -53.343,-25.194 -54.035,-54.035 -0.839,-39.662 -0.839,-79.333 0,-119.005 0.692,-28.842 25.193,-53.343 54.035,-54.035 19.836,-0.42 39.661,-0.629 59.497,-0.629 19.836,0 39.672,0.209 59.508,0.629 28.841,0.692 53.332,25.193 54.024,54.035 0.849,39.672 0.849,79.343 0,119.005 M 0,0 c -8.398,0 -15.202,6.815 -15.202,15.212 0,8.398 6.804,15.202 15.202,15.202 8.408,0 15.212,-6.804 15.212,-15.202 C 15.212,6.815 8.408,0 0,0 m -72.77,-126.899 c -38.068,0 -69.048,31.106 -69.048,69.341 0,38.225 30.98,69.332 69.048,69.332 38.078,0 69.048,-31.107 69.048,-69.332 0,-38.235 -30.97,-69.341 -69.048,-69.341 M 40.762,1.94 c -0.692,28.841 -25.183,53.343 -54.024,54.035 -19.836,0.419 -39.672,0.629 -59.508,0.629 -19.836,0 -39.661,-0.21 -59.497,-0.629 -28.842,-0.692 -53.343,-25.194 -54.035,-54.035 -0.839,-39.662 -0.839,-79.333 0,-119.005 0.692,-28.842 25.193,-53.343 54.035,-54.035 19.836,-0.42 39.661,-0.629 59.497,-0.629 19.836,0 39.672,0.209 59.508,0.629 28.841,0.692 53.332,25.193 54.024,54.035 0.849,39.672 0.849,79.343 0,119.005 M 0,0 c -8.398,0 -15.202,6.815 -15.202,15.212 0,8.398 6.804,15.202 15.202,15.202 8.408,0 15.212,-6.804 15.212,-15.202 C 15.212,6.815 8.408,0 0,0 m -72.77,-126.899 c -38.068,0 -69.048,31.106 -69.048,69.341 0,38.225 30.98,69.332 69.048,69.332 38.078,0 69.048,-31.107 69.048,-69.332 0,-38.235 -30.97,-69.341 -69.048,-69.341 M 40.762,1.94 c -0.692,28.841 -25.183,53.343 -54.024,54.035 -19.836,0.419 -39.672,0.629 -59.508,0.629 -19.836,0 -39.661,-0.21 -59.497,-0.629 -28.842,-0.692 -53.343,-25.194 -54.035,-54.035 -0.839,-39.662 -0.839,-79.333 0,-119.005 0.692,-28.842 25.193,-53.343 54.035,-54.035 19.836,-0.42 39.661,-0.629 59.497,-0.629 19.836,0 39.672,0.209 59.508,0.629 28.841,0.692 53.332,25.193 54.024,54.035 0.849,39.672 0.849,79.343 0,119.005 M 0,0 c -8.398,0 -15.202,6.815 -15.202,15.212 0,8.398 6.804,15.202 15.202,15.202 8.408,0 15.212,-6.804 15.212,-15.202 C 15.212,6.815 8.408,0 0,0 m -72.77,-126.899 c -38.068,0 -69.048,31.106 -69.048,69.341 0,38.225 30.98,69.332 69.048,69.332 38.078,0 69.048,-31.107 69.048,-69.332 0,-38.235 -30.97,-69.341 -69.048,-69.341 M 40.762,1.94 c -0.692,28.841 -25.183,53.343 -54.024,54.035 -19.836,0.419 -39.672,0.629 -59.508,0.629 -19.836,0 -39.661,-0.21 -59.497,-0.629 -28.842,-0.692 -53.343,-25.194 -54.035,-54.035 -0.839,-39.662 -0.839,-79.333 0,-119.005 0.692,-28.842 25.193,-53.343 54.035,-54.035 19.836,-0.42 39.661,-0.629 59.497,-0.629 19.836,0 39.672,0.209 59.508,0.629 28.841,0.692 53.332,25.193 54.024,54.035 0.849,39.672 0.849,79.343 0,119.005 M 0,0 c -8.398,0 -15.202,6.815 -15.202,15.212 0,8.398 6.804,15.202 15.202,15.202 8.408,0 15.212,-6.804 15.212,-15.202 C 15.212,6.815 8.408,0 0,0 m -72.77,-126.899 c -38.068,0 -69.048,31.106 -69.048,69.341 0,38.225 30.98,69.332 69.048,69.332 38.078,0 69.048,-31.107 69.048,-69.332 0,-38.235 -30.97,-69.341 -69.048,-69.341 M 40.762,1.94 c -0.692,28.841 -25.183,53.343 -54.024,54.035 -19.836,0.419 -39.672,0.629 -59.508,0.629 -19.836,0 -39.661,-0.21 -59.497,-0.629 -28.842,-0.692 -53.343,-25.194 -54.035,-54.035 -0.839,-39.662 -0.839,-79.333 0,-119.005 0.692,-28.842 25.193,-53.343 54.035,-54.035 19.836,-0.42 39.661,-0.629 59.497,-0.629 19.836,0 39.672,0.209 59.508,0.629 28.841,0.692 53.332,25.193 54.024,54.035 0.849,39.672 0.849,79.343 0,119.005 M 0,0 c -8.398,0 -15.202,6.815 -15.202,15.212 0,8.398 6.804,15.202 15.202,15.202 8.408,0 15.212,-6.804 15.212,-15.202 C 15.212,6.815 8.408,0 0,0 m -72.77,-126.899 c -38.068,0 -69.048,31.106 -69.048,69.341 0,38.225 30.98,69.332 69.048,69.332 38.078,0 69.048,-31.107 69.048,-69.332 0,-38.235 -30.97,-69.341 -69.048,-69.341 M 40.762,1.94 c -0.692,28.841 -25.183,53.343 -54.024,54.035 -19.836,0.419 -39.672,0.629 -59.508,0.629 -19.836,0 -39.661,-0.21 -59.497,-0.629 -28.842,-0.692 -53.343,-25.194 -54.035,-54.035 -0.839,-39.662 -0.839,-79.333 0,-119.005 0.692,-28.842 25.193,-53.343 54.035,-54.035 19.836,-0.42 39.661,-0.629 59.497,-0.629 19.836,0 39.672,0.209 59.508,0.629 28.841,0.692 53.332,25.193 54.024,54.035 0.849,39.672 0.849,79.343 0,119.005 M 0,0 c -8.398,0 -15.202,6.815 -15.202,15.212 0,8.398 6.804,15.202 15.202,15.202 8.408,0 15.212,-6.804 15.212,-15.202 C 15.212,6.815 8.408,0 0,0 m -72.77,-126.899 c -38.068,0 -69.048,31.106 -69.048,69.341 0,38.225 30.98,69.332 69.048,69.332 38.078,0 69.048,-31.107 69.048,-69.332 0,-38.235 -30.97,-69.341 -69.048,-69.341 M 40.762,1.94 c -0.692,28.841 -25.183,53.343 -54.024,54.035 -19.836,0.419 -39.672,0.629 -59.508,0.629 -19.836,0 -39.661,-0.21 -59.497,-0.629 -28.842,-0.692 -53.343,-25.194 -54.035,-54.035 -0.839,-39.662 -0.839,-79.333 0,-119.005 0.692,-28.842 25.193,-53.343 54.035,-54.035 19.836,-0.42 39.661,-0.629 59.497,-0.629 19.836,0 39.672,0.209 59.508,0.629 28.841,0.692 53.332,25.193 54.024,54.035 0.849,39.672 0.849,79.343 0,119.005 M 0,0 c -8.398,0 -15.202,6.815 -15.202,15.212 0,8.398 6.804,15.202 15.202,15.202 8.408,0 15.212,-6.804 15.212,-15.202 C 15.212,6.815 8.408,0 0,0 m -72.77,-126.899 c -38.068,0 -69.048,31.106 -69.048,69.341 0,38.225 30.98,69.332 69.048,69.332 38.078,0 69.048,-31.107 69.048,-69.332 0,-38.235 -30.97,-69.341 -69.048,-69.341 M 40.762,1.94 c -0.692,28.841 -25.183,53.343 -54.024,54.035 -19.836,0.419 -39.672,0.629 -59.508,0.629 -19.836,0 -39.661,-0.21 -59.497,-0.629 -28.842,-0.692 -53.343,-25.194 -54.035,-54.035 -0.839,-39.662 -0.839,-79.333 0,-119.005 0.692,-28.842 25.193,-53.343 54.035,-54.035 19.836,-0.42 39.661,-0.629 59.497,-0.629 19.836,0 39.672,0.209 59.508,0.629 28.841,0.692 53.332,25.193 54.024,54.035 0.849,39.672 0.849,79.343 0,119.005 M 0,0 c -8.398,0 -15.202,6.815 -15.202,15.212 0,8.398 6.804,15.202 15.202,15.202 8.408,0 15.212,-6.804 15.212,-15.202 C 15.212,6.815 8.408,0 0,0 m -72.77,-126.899 c -38.068,0 -69.048,31.106 -69.048,69.341 0,38.225 30.98,69.332 69.048,69.332 38.078,0 69.048,-31.107 69.048,-69.332 0,-38.235 -30.97,-69.341 -69.048,-69.341 M 40.762,1.94 c -0.692,28.841 -25.183,53.343 -54.024,54.035 -19.836,0.419 -39.672,0.629 -59.508,0.629 -19.836,0 -39.661,-0.21 -59.497,-0.629 -28.842,-0.692 -53.343,-25.194 -54.035,-54.035 -0.839,-39.662 -0.839,-79.333 0,-119.005 0.692,-28.842 25.193,-53.343 54.035,-54.035 19.836,-0.42 39.661,-0.629 59.497,-0.629 19.836,0 39.672,0.209 59.508,0.629 28.841,0.692 53.332,25.193 54.024,54.035 0.849,39.672 0.849,79.343 0,119.005 M 0,0 c -8.398,0 -15.202,6.815 -15.202,15.212 0,8.398 6.804,15.202 15.202,15.202 8.408,0 15.212,-6.804 15.212,-15.202 C 15.212,6.815 8.408,0 0,0 m -72.77,-126.899 c -38.068,0 -69.048,31.106 -69.048,69.341 0,38.225 30.98,69.332 69.048,69.332 38.078,0 69.048,-31.107 69.048,-69.332 0,-38.235 -30.97,-69.341 -69.048,-69.341 M 40.762,1.94 c -0.692,28.841 -25.183,53.343 -54.024,54.035 -19.836,0.419 -39.672,0.629 -59.508,0.629 -19.836,0 -39.661,-0.21 -59.497,-0.629 -28.842,-0.692 -53.343,-25.194 -54.035,-54.035 -0.839,-39.662 -0.839,-79.333 0,-119.005 0.692,-28.842 25.193,-53.343 54.035,-54.035 19.836,-0.42 39.661,-0.629 59.497,-0.629 19.836,0 39.672,0.209 59.508,0.629 28.841,0.692 53.332,25.193 54.024,54.035 0.849,39.672 0.849,79.343 0,119.005 M 0,0 c -8.398,0 -15.202,6.815 -15.202,15.212 0,8.398 6.804,15.202 15.202,15.202 8.408,0 15.212,-6.804 15.212,-15.202 C 15.212,6.815 8.408,0 0,0 m -72.77,-126.899 c -38.068,0 -69.048,31.106 -69.048,69.341 0,38.225 30.98,69.332 69.048,69.332 38.078,0 69.048,-31.107 69.048,-69.332 0,-38.235 -30.97,-69.341 -69.048,-69.341 M 40.762,1.94 c -0.692,28.841 -25.183,53.343 -54.024,54.035 -19.836,0.419 -39.672,0.629 -59.508,0.629 -19.836,0 -39.661,-0.21 -59.497,-0.629 -28.842,-0.692 -53.343,-25.194 -54.035,-54.035 -0.839,-39.662 -0.839,-79.333 0,-119.005 0.692,-28.842 25.193,-53.343 54.035,-54.035 19.836,-0.42 39.661,-0.629 59.497,-0.629 19.836,0 39.672,0.209 59.508,0.629 28.841,0.692 53.332,25.193 54.024,54.035 0.849,39.672 0.849,79.343 0,119.005 M 0,0 c -8.398,0 -15.202,6.815 -15.202,15.212 0,8.398 6.804,15.202 15.202,15.202 8.408,0 15.212,-6.804 15.212,-15.202 C 15.212,6.815 8.408,0 0,0 m -72.77,-126.899 c -38.068,0 -69.048,31.106 -69.048,69.341 0,38.225 30.98,69.332 69.048,69.332 38.078,0 69.048,-31.107 69.048,-69.332 0,-38.235 -30.97,-69.341 -69.048,-69.341 M 40.762,1.94 c -0.692,28.841 -25.183,53.343 -54.024,54.035 -19.836,0.419 -39.672,0.629 -59.508,0.629 -19.836,0 -39.661,-0.21 -59.497,-0.629 -28.842,-0.692 -53.343,-25.194 -54.035,-54.035 -0.839,-39.662 -0.839,-79.333 0,-119.005 0.692,-28.842 25.193,-53.343 54.035,-54.035 19.836,-0.42 39.661,-0.629 59.497,-0.629 19.836,0 39.672,0.209 59.508,0.629 28.841,0.692 53.332,25.193 54.024,54.035 0.849,39.672 0.849,79.343 0,119.005 M 0,0 c -8.398,0 -15.202,6.815 -15.202,15.212 0,8.398 6.804,15.202 15.202,15.202 8.408,0 15.212,-6.804 15.212,-15.202 C 15.212,6.815 8.408,0 0,0 m -72.77,-126.899 c -38.068,0 -69.048,31.106 -69.048,69.341 0,38.225 30.98,69.332 69.048,69.332 38.078,0 69.048,-31.107 69.048,-69.332 0,-38.235 -30.97,-69.341 -69.048,-69.341 M 40.762,1.94 c -0.692,28.841 -25.183,53.343 -54.024,54.035 -19.836,0.419 -39.672,0.629 -59.508,0.629 -19.836,0 -39.661,-0.21 -59.497,-0.629 -28.842,-0.692 -53.343,-25.194 -54.035,-54.035 -0.839,-39.662 -0.839,-79.333 0,-119.005 0.692,-28.842 25.193,-53.343 54.035,-54.035 19.836,-0.42 39.661,-0.629 59.497,-0.629 19.836,0 39.672,0.209 59.508,0.629 28.841,0.692 53.332,25.193 54.024,54.035 0.849,39.672 0.849,79.343 0,119.005 M 0,0 c -8.398,0 -15.202,6.815 -15.202,15.212 0,8.398 6.804,15.202 15.202,15.202 8.408,0 15.212,-6.804 15.212,-15.202 C 15.212,6.815 8.408,0 0,0 m -72.77,-126.899 c -38.068,0 -69.048,31.106 -69.048,69.341 0,38.225 30.98,69.332 69.048,69.332 38.078,0 69.048,-31.107 69.048,-69.332 0,-38.235 -30.97,-69.341 -69.048,-69.341 M 40.762,1.94 c -0.692,28.841 -25.183,53.343 -54.024,54.035 -19.836,0.419 -39.672,0.629 -59.508,0.629 -19.836,0 -39.661,-0.21 -59.497,-0.629 -28.842,-0.692 -53.343,-25.194 -54.035,-54.035 -0.839,-39.662 -0.839,-79.333 0,-119.005 0.692,-28.842 25.193,-53.343 54.035,-54.035 19.836,-0.42 39.661,-0.629 59.497,-0.629 19.836,0 39.672,0.209 59.508,0.629 28.841,0.692 53.332,25.193 54.024,54.035 0.849,39.672 0.849,79.343 0,119.005 M 0,0 c -8.398,0 -15.202,6.815 -15.202,15.212 0,8.398 6.804,15.202 15.202,15.202 8.408,0 15.212,-6.804 15.212,-15.202 C 15.212,6.815 8.408,0 0,0 m -72.77,-126.899 c -38.068,0 -69.048,31.106 -69.048,69.341 0,38.225 30.98,69.332 69.048,69.332 38.078,0 69.048,-31.107 69.048,-69.332 0,-38.235 -30.97,-69.341 -69.048,-69.341 M 40.762,1.94 c -0.692,28.841 -25.183,53.343 -54.024,54.035 -19.836,0.419 -39.672,0.629 -59.508,0.629 -19.836,0 -39.661,-0.21 -59.497,-0.629 -28.842,-0.692 -53.343,-25.194 -54.035,-54.035 -0.839,-39.662 -0.839,-79.333 0,-119.005 0.692,-28.842 25.193,-53.343 54.035,-54.035 19.836,-0.42 39.661,-0.629 59.497,-0.629 19.836,0 39.672,0.209 59.508,0.629 28.841,0.692 53.332,25.193 54.024,54.035 0.849,39.672 0.849,79.343 0,119.005 M 0,0 c -8.398,0 -15.202,6.815 -15.202,15.212 0,8.398 6.804,15.202 15.202,15.202 8.408,0 15.212,-6.804 15.212,-15.202 C 15.212,6.815 8.408,0 0,0 m -72.77,-126.899 c -38.068,0 -69.048,31.106 -69.048,69.341 0,38.225 30.98,69.332 69.048,69.332 38.078,0 69.048,-31.107 69.048,-69.332 0,-38.235 -30.97,-69.341 -69.048,-69.341 M 40.762,1.94 c -0.692,28.841 -25.183,53.343 -54.024,54.035 -19.836,0.419 -39.672,0.629 -59.508,0.629 -19.836,0 -39.661,-0.21 -59.497,-0.629 -28.842,-0.692 -53.343,-25.194 -54.035,-54.035 -0.839,-39.662 -0.839,-79.333 0,-119.005 0.692,-28.842 25.193,-53.343 54.035,-54.035 19.836,-0.42 39.661,-0.629 59.497,-0.629 19.836,0 39.672,0.209 59.508,0.629 28.841,0.692 53.332,25.193 54.024,54.035 0.849,39.672 0.849,79.343 0,119.005 M 0,0 c -8.398,0 -15.202,6.815 -15.202,15.212 0,8.398 6.804,15.202 15.202,15.202 8.408,0 15.212,-6.804 15.212,-15.202 C 15.212,6.815 8.408,0 0,0 m -72.77,-126.899 c -38.068,0 -69.048,31.106 -69.048,69.341 0,38.225 30.98,69.332 69.048,69.332 38.078,0 69.048,-31.107 69.048,-69.332 0,-38.235 -30.97,-69.341 -69.048,-69.341 M 40.762,1.94 c -0.692,28.841 -25.183,53.343 -54.024,54.035 -19.836,0.419 -39.672,0.629 -59.508,0.629 -19.836,0 -39.661,-0.21 -59.497,-0.629 -28.842,-0.692 -53.343,-25.194 -54.035,-54.035 -0.839,-39.662 -0.839,-79.333 0,-119.005 0.692,-28.842 25.193,-53.343 54.035,-54.035 19.836,-0.42 39.661,-0.629 59.497,-0.629 19.836,0 39.672,0.209 59.508,0.629 28.841,0.692 53.332,25.193 54.024,54.035 0.849,39.672 0.849,79.343 0,119.005 M 0,0 c -8.398,0 -15.202,6.815 -15.202,15.212 0,8.398 6.804,15.202 15.202,15.202 8.408,0 15.212,-6.804 15.212,-15.202 C 15.212,6.815 8.408,0 0,0 m -72.77,-126.899 c -38.068,0 -69.048,31.106 -69.048,69.341 0,38.225 30.98,69.332 69.048,69.332 38.078,0 69.048,-31.107 69.048,-69.332 0,-38.235 -30.97,-69.341 -69.048,-69.341 M 40.762,1.94 c -0.692,28.841 -25.183,53.343 -54.024,54.035 -19.836,0.419 -39.672,0.629 -59.508,0.629 -19.836,0 -39.661,-0.21 -59.497,-0.629 -28.842,-0.692 -53.343,-25.194 -54.035,-54.035 -0.839,-39.662 -0.839,-79.333 0,-119.005 0.692,-28.842 25.193,-53.343 54.035,-54.035 19.836,-0.42 39.661,-0.629 59.497,-0.629 19.836,0 39.672,0.209 59.508,0.629 28.841,0.692 53.332,25.193 54.024,54.035 0.849,39.672 0.849,79.343 0,119.005 M 0,0 c -8.398,0 -15.202,6.815 -15.202,15.212 0,8.398 6.804,15.202 15.202,15.202 8.408,0 15.212,-6.804 15.212,-15.202 C 15.212,6.815 8.408,0 0,0 m -72.77,-126.899 c -38.068,0 -69.048,31.106 -69.048,69.341 0,38.225 30.98,69.332 69.048,69.332 38.078,0 69.048,-31.107 69.048,-69.332 0,-38.235 -30.97,-69.341 -69.048,-69.341 M 40.762,1.94 c -0.692,28.841 -25.183,53.343 -54.024,54.035 -19.836,0.419 -39.672,0.629 -59.508,0.629 -19.836,0 -39.661,-0.21 -59.497,-0.629 -28.842,-0.692 -53.343,-25.194 -54.035,-54.035 -0.839,-39.662 -0.839,-79.333 0,-119.005 0.692,-28.842 25.193,-53.343 54.035,-54.035 19.836,-0.42 39.661,-0.629 59.497,-0.629 19.836,0 39.672,0.209 59.508,0.629 28.841,0.692 53.332,25.193 54.024,54.035 0.849,39.672 0.849,79.343 0,119.005 M 0,0 c -8.398,0 -15.202,6.815 -15.202,15.212 0,8.398 6.804,15.202 15.202,15.202 8.408,0 15.212,-6.804 15.212,-15.202 C 15.212,6.815 8.408,0 0,0 m -72.77,-126.899 c -38.068,0 -69.048,31.106 -69.048,69.341 0,38.225 30.98,69.332 69.048,69.332 38.078,0 69.048,-31.107 69.048,-69.332 0,-38.235 -30.97,-69.341 -69.048,-69.341 M 40.762,1.94 c -0.692,28.841 -25.183,53.343 -54.024,54.035 -19.836,0.419 -39.672,0.629 -59.508,0.629 -19.836,0 -39.661,-0.21 -59.497,-0.629 -28.842,-0.692 -53.343,-25.194 -54.035,-54.035 -0.839,-39.662 -0.839,-79.333 0,-119.005 0.692,-28.842 25.193,-53.343 54.035,-54.035 19.836,-0.42 39.661,-0.629 59.497,-0.629 19.836,0 39.672,0.209 59.508,0.629 28.841,0.692 53.332,25.193 54.024,54.035 0.849,39.672 0.849,79.343 0,119.005 M 0,0 c -8.398,0 -15.202,6.815 -15.202,15.212 0,8.398 6.804,15.202 15.202,15.202 8.408,0 15.212,-6.804 15.212,-15.202 C 15.212,6.815 8.408,0 0,0 m -72.77,-126.899 c -38.068,0 -69.048,31.106 -69.048,69.341 0,38.225 30.98,69.332 69.048,69.332 38.078,0 69.048,-31.107 69.048,-69.332 0,-38.235 -30.97,-69.341 -69.048,-69.341 M 40.762,1.94 c -0.692,28.841 -25.183,53.343 -54.024,54.035 -19.836,0.419 -39.672,0.629 -59.508,0.629 -19.836,0 -39.661,-0.21 -59.497,-0.629 -28.842,-0.692 -53.343,-25.194 -54.035,-54.035 -0.839,-39.662 -0.839,-79.333 0,-119.005 0.692,-28.842 25.193,-53.343 54.035,-54.035 19.836,-0.42 39.661,-0.629 59.497,-0.629 19.836,0 39.672,0.209 59.508,0.629 28.841,0.692 53.332,25.193 54.024,54.035 0.849,39.672 0.849,79.343 0,119.005 M 0,0 c -8.398,0 -15.202,6.815 -15.202,15.212 0,8.398 6.804,15.202 15.202,15.202 8.408,0 15.212,-6.804 15.212,-15.202 C 15.212,6.815 8.408,0 0,0 m -72.77,-126.899 c -38.068,0 -69.048,31.106 -69.048,69.341 0,38.225 30.98,69.332 69.048,69.332 38.078,0 69.048,-31.107 69.048,-69.332 0,-38.235 -30.97,-69.341 -69.048,-69.341 M 40.762,1.94 c -0.692,28.841 -25.183,53.343 -54.024,54.035 -19.836,0.419 -39.672,0.629 -59.508,0.629 -19.836,0 -39.661,-0.21 -59.497,-0.629 -28.842,-0.692 -53.343,-25.194 -54.035,-54.035 -0.839,-39.662 -0.839,-79.333 0,-119.005 0.692,-28.842 25.193,-53.343 54.035,-54.035 19.836,-0.42 39.661,-0.629 59.497,-0.629 19.836,0 39.672,0.209 59.508,0.629 28.841,0.692 53.332,25.193 54.024,54.035 0.849,39.672 0.849,79.343 0,119.005 M 0,0 c -8.398,0 -15.202,6.815 -15.202,15.212 0,8.398 6.804,15.202 15.202,15.202 8.408,0 15.212,-6.804 15.212,-15.202 C 15.212,6.815 8.408,0 0,0 m -72.77,-126.899 c -38.068,0 -69.048,31.106 -69.048,69.341 0,38.225 30.98,69.332 69.048,69.332 38.078,0 69.048,-31.107 69.048,-69.332 0,-38.235 -30.97,-69.341 -69.048,-69.341 M 40.762,1.94 c -0.692,28.841 -25.183,53.343 -54.024,54.035 -19.836,0.419 -39.672,0.629 -59.508,0.629 -19.836,0 -39.661,-0.21 -59.497,-0.629 -28.842,-0.692 -53.343,-25.194 -54.035,-54.035 -0.839,-39.662 -0.839,-79.333 0,-119.005 0.692,-28.842 25.193,-53.343 54.035,-54.035 19.836,-0.42 39.661,-0.629 59.497,-0.629 19.836,0 39.672,0.209 59.508,0.629 28.841,0.692 53.332,25.193 54.024,54.035 0.849,39.672 0.849,79.343 0,119.005 M 0,0 c -8.398,0 -15.202,6.815 -15.202,15.212 0,8.398 6.804,15.202 15.202,15.202 8.408,0 15.212,-6.804 15.212,-15.202 C 15.212,6.815 8.408,0 0,0 m -72.77,-126.899 c -38.068,0 -69.048,31.106 -69.048,69.341 0,38.225 30.98,69.332 69.048,69.332 38.078,0 69.048,-31.107 69.048,-69.332 0,-38.235 -30.97,-69.341 -69.048,-69.341 M 40.762,1.94 c -0.692,28.841 -25.183,53.343 -54.024,54.035 -19.836,0.419 -39.672,0.629 -59.508,0.629 -19.836,0 -39.661,-0.21 -59.497,-0.629 -28.842,-0.692 -53.343,-25.194 -54.035,-54.035 -0.839,-39.662 -0.839,-79.333 0,-119.005 0.692,-28.842 25.193,-53.343 54.035,-54.035 19.836,-0.42 39.661,-0.629 59.497,-0.629 19.836,0 39.672,0.209 59.508,0.629 28.841,0.692 53.332,25.193 54.024,54.035 0.849,39.672 0.849,79.343 0,119.005"
           style="fill:#1a1a1a;fill-opacity:1;fill-rule:nonzero;stroke:none"
           id="path47" />
      </g>
      <g
         id="g49"
         transform="translate(-233.68459,198.36457)">
        <path
           d="m 0,0 c 0,-26.776 -21.576,-48.478 -48.185,-48.478 -26.609,0 -48.185,21.702 -48.185,48.478 0,26.766 21.576,48.468 48.185,48.468 C -21.576,48.468 0,26.766 0,0"
           style="fill:#002850;fill-opacity:1;fill-rule:nonzero;stroke:none"
           id="path51" />
      </g>
      <g
         id="g53"
         transform="translate(-209.0994,255.9222)">
        <path
           d="m 0,0 c -8.398,0 -15.202,6.815 -15.202,15.212 0,8.398 6.804,15.202 15.202,15.202 8.408,0 15.212,-6.804 15.212,-15.202 C 15.212,6.815 8.408,0 0,0 m -72.77,-126.899 c -38.068,0 -69.048,31.106 -69.048,69.341 0,38.225 30.98,69.332 69.048,69.332 38.078,0 69.048,-31.107 69.048,-69.332 0,-38.235 -30.97,-69.341 -69.048,-69.341 M 40.762,1.94 c -0.692,28.841 -25.183,53.343 -54.024,54.035 -19.836,0.419 -39.672,0.629 -59.508,0.629 -19.836,0 -39.661,-0.21 -59.497,-0.629 -28.842,-0.692 -53.343,-25.194 -54.035,-54.035 -0.839,-39.662 -0.839,-79.333 0,-119.005 0.692,-28.842 25.193,-53.343 54.035,-54.035 19.836,-0.42 39.661,-0.629 59.497,-0.629 19.836,0 39.672,0.209 59.508,0.629 28.841,0.692 53.332,25.193 54.024,54.035 0.849,39.672 0.849,79.343 0,119.005 M 0,0 c -8.398,0 -15.202,6.815 -15.202,15.212 0,8.398 6.804,15.202 15.202,15.202 8.408,0 15.212,-6.804 15.212,-15.202 C 15.212,6.815 8.408,0 0,0 m -72.77,-126.899 c -38.068,0 -69.048,31.106 -69.048,69.341 0,38.225 30.98,69.332 69.048,69.332 38.078,0 69.048,-31.107 69.048,-69.332 0,-38.235 -30.97,-69.341 -69.048,-69.341 M 40.762,1.94 c -0.692,28.841 -25.183,53.343 -54.024,54.035 -19.836,0.419 -39.672,0.629 -59.508,0.629 -19.836,0 -39.661,-0.21 -59.497,-0.629 -28.842,-0.692 -53.343,-25.194 -54.035,-54.035 -0.839,-39.662 -0.839,-79.333 0,-119.005 0.692,-28.842 25.193,-53.343 54.035,-54.035 19.836,-0.42 39.661,-0.629 59.497,-0.629 19.836,0 39.672,0.209 59.508,0.629 28.841,0.692 53.332,25.193 54.024,54.035 0.849,39.672 0.849,79.343 0,119.005 M 0,0 c -8.398,0 -15.202,6.815 -15.202,15.212 0,8.398 6.804,15.202 15.202,15.202 8.408,0 15.212,-6.804 15.212,-15.202 C 15.212,6.815 8.408,0 0,0 m -72.77,-126.899 c -38.068,0 -69.048,31.106 -69.048,69.341 0,38.225 30.98,69.332 69.048,69.332 38.078,0 69.048,-31.107 69.048,-69.332 0,-38.235 -30.97,-69.341 -69.048,-69.341 M 40.762,1.94 c -0.692,28.841 -25.183,53.343 -54.024,54.035 -19.836,0.419 -39.672,0.629 -59.508,0.629 -19.836,0 -39.661,-0.21 -59.497,-0.629 -28.842,-0.692 -53.343,-25.194 -54.035,-54.035 -0.839,-39.662 -0.839,-79.333 0,-119.005 0.692,-28.842 25.193,-53.343 54.035,-54.035 19.836,-0.42 39.661,-0.629 59.497,-0.629 19.836,0 39.672,0.209 59.508,0.629 28.841,0.692 53.332,25.193 54.024,54.035 0.849,39.672 0.849,79.343 0,119.005 M 0,0 c -8.398,0 -15.202,6.815 -15.202,15.212 0,8.398 6.804,15.202 15.202,15.202 8.408,0 15.212,-6.804 15.212,-15.202 C 15.212,6.815 8.408,0 0,0 m -72.77,-126.899 c -38.068,0 -69.048,31.106 -69.048,69.341 0,38.225 30.98,69.332 69.048,69.332 38.078,0 69.048,-31.107 69.048,-69.332 0,-38.235 -30.97,-69.341 -69.048,-69.341 M 40.762,1.94 c -0.692,28.841 -25.183,53.343 -54.024,54.035 -19.836,0.419 -39.672,0.629 -59.508,0.629 -19.836,0 -39.661,-0.21 -59.497,-0.629 -28.842,-0.692 -53.343,-25.194 -54.035,-54.035 -0.839,-39.662 -0.839,-79.333 0,-119.005 0.692,-28.842 25.193,-53.343 54.035,-54.035 19.836,-0.42 39.661,-0.629 59.497,-0.629 19.836,0 39.672,0.209 59.508,0.629 28.841,0.692 53.332,25.193 54.024,54.035 0.849,39.672 0.849,79.343 0,119.005 M 0,0 c -8.398,0 -15.202,6.815 -15.202,15.212 0,8.398 6.804,15.202 15.202,15.202 8.408,0 15.212,-6.804 15.212,-15.202 C 15.212,6.815 8.408,0 0,0 m -72.77,-126.899 c -38.068,0 -69.048,31.106 -69.048,69.341 0,38.225 30.98,69.332 69.048,69.332 38.078,0 69.048,-31.107 69.048,-69.332 0,-38.235 -30.97,-69.341 -69.048,-69.341 M 40.762,1.94 c -0.692,28.841 -25.183,53.343 -54.024,54.035 -19.836,0.419 -39.672,0.629 -59.508,0.629 -19.836,0 -39.661,-0.21 -59.497,-0.629 -28.842,-0.692 -53.343,-25.194 -54.035,-54.035 -0.839,-39.662 -0.839,-79.333 0,-119.005 0.692,-28.842 25.193,-53.343 54.035,-54.035 19.836,-0.42 39.661,-0.629 59.497,-0.629 19.836,0 39.672,0.209 59.508,0.629 28.841,0.692 53.332,25.193 54.024,54.035 0.849,39.672 0.849,79.343 0,119.005 M 0,0 c -8.398,0 -15.202,6.815 -15.202,15.212 0,8.398 6.804,15.202 15.202,15.202 8.408,0 15.212,-6.804 15.212,-15.202 C 15.212,6.815 8.408,0 0,0 m -72.77,-126.899 c -38.068,0 -69.048,31.106 -69.048,69.341 0,38.225 30.98,69.332 69.048,69.332 38.078,0 69.048,-31.107 69.048,-69.332 0,-38.235 -30.97,-69.341 -69.048,-69.341 M 40.762,1.94 c -0.692,28.841 -25.183,53.343 -54.024,54.035 -19.836,0.419 -39.672,0.629 -59.508,0.629 -19.836,0 -39.661,-0.21 -59.497,-0.629 -28.842,-0.692 -53.343,-25.194 -54.035,-54.035 -0.839,-39.662 -0.839,-79.333 0,-119.005 0.692,-28.842 25.193,-53.343 54.035,-54.035 19.836,-0.42 39.661,-0.629 59.497,-0.629 19.836,0 39.672,0.209 59.508,0.629 28.841,0.692 53.332,25.193 54.024,54.035 0.849,39.672 0.849,79.343 0,119.005 M 0,0 c -8.398,0 -15.202,6.815 -15.202,15.212 0,8.398 6.804,15.202 15.202,15.202 8.408,0 15.212,-6.804 15.212,-15.202 C 15.212,6.815 8.408,0 0,0 m -72.77,-126.899 c -38.068,0 -69.048,31.106 -69.048,69.341 0,38.225 30.98,69.332 69.048,69.332 38.078,0 69.048,-31.107 69.048,-69.332 0,-38.235 -30.97,-69.341 -69.048,-69.341 M 40.762,1.94 c -0.692,28.841 -25.183,53.343 -54.024,54.035 -19.836,0.419 -39.672,0.629 -59.508,0.629 -19.836,0 -39.661,-0.21 -59.497,-0.629 -28.842,-0.692 -53.343,-25.194 -54.035,-54.035 -0.839,-39.662 -0.839,-79.333 0,-119.005 0.692,-28.842 25.193,-53.343 54.035,-54.035 19.836,-0.42 39.661,-0.629 59.497,-0.629 19.836,0 39.672,0.209 59.508,0.629 28.841,0.692 53.332,25.193 54.024,54.035 0.849,39.672 0.849,79.343 0,119.005 M 0,0 c -8.398,0 -15.202,6.815 -15.202,15.212 0,8.398 6.804,15.202 15.202,15.202 8.408,0 15.212,-6.804 15.212,-15.202 C 15.212,6.815 8.408,0 0,0 m -72.77,-126.899 c -38.068,0 -69.048,31.106 -69.048,69.341 0,38.225 30.98,69.332 69.048,69.332 38.078,0 69.048,-31.107 69.048,-69.332 0,-38.235 -30.97,-69.341 -69.048,-69.341 M 40.762,1.94 c -0.692,28.841 -25.183,53.343 -54.024,54.035 -19.836,0.419 -39.672,0.629 -59.508,0.629 -19.836,0 -39.661,-0.21 -59.497,-0.629 -28.842,-0.692 -53.343,-25.194 -54.035,-54.035 -0.839,-39.662 -0.839,-79.333 0,-119.005 0.692,-28.842 25.193,-53.343 54.035,-54.035 19.836,-0.42 39.661,-0.629 59.497,-0.629 19.836,0 39.672,0.209 59.508,0.629 28.841,0.692 53.332,25.193 54.024,54.035 0.849,39.672 0.849,79.343 0,119.005 M 0,0 c -8.398,0 -15.202,6.815 -15.202,15.212 0,8.398 6.804,15.202 15.202,15.202 8.408,0 15.212,-6.804 15.212,-15.202 C 15.212,6.815 8.408,0 0,0 m -72.77,-126.899 c -38.068,0 -69.048,31.106 -69.048,69.341 0,38.225 30.98,69.332 69.048,69.332 38.078,0 69.048,-31.107 69.048,-69.332 0,-38.235 -30.97,-69.341 -69.048,-69.341 M 40.762,1.94 c -0.692,28.841 -25.183,53.343 -54.024,54.035 -19.836,0.419 -39.672,0.629 -59.508,0.629 -19.836,0 -39.661,-0.21 -59.497,-0.629 -28.842,-0.692 -53.343,-25.194 -54.035,-54.035 -0.839,-39.662 -0.839,-79.333 0,-119.005 0.692,-28.842 25.193,-53.343 54.035,-54.035 19.836,-0.42 39.661,-0.629 59.497,-0.629 19.836,0 39.672,0.209 59.508,0.629 28.841,0.692 53.332,25.193 54.024,54.035 0.849,39.672 0.849,79.343 0,119.005 M 0,0 c -8.398,0 -15.202,6.815 -15.202,15.212 0,8.398 6.804,15.202 15.202,15.202 8.408,0 15.212,-6.804 15.212,-15.202 C 15.212,6.815 8.408,0 0,0 m -72.77,-126.899 c -38.068,0 -69.048,31.106 -69.048,69.341 0,38.225 30.98,69.332 69.048,69.332 38.078,0 69.048,-31.107 69.048,-69.332 0,-38.235 -30.97,-69.341 -69.048,-69.341 M 40.762,1.94 c -0.692,28.841 -25.183,53.343 -54.024,54.035 -19.836,0.419 -39.672,0.629 -59.508,0.629 -19.836,0 -39.661,-0.21 -59.497,-0.629 -28.842,-0.692 -53.343,-25.194 -54.035,-54.035 -0.839,-39.662 -0.839,-79.333 0,-119.005 0.692,-28.842 25.193,-53.343 54.035,-54.035 19.836,-0.42 39.661,-0.629 59.497,-0.629 19.836,0 39.672,0.209 59.508,0.629 28.841,0.692 53.332,25.193 54.024,54.035 0.849,39.672 0.849,79.343 0,119.005 M 0,0 c -8.398,0 -15.202,6.815 -15.202,15.212 0,8.398 6.804,15.202 15.202,15.202 8.408,0 15.212,-6.804 15.212,-15.202 C 15.212,6.815 8.408,0 0,0 m -72.77,-126.899 c -38.068,0 -69.048,31.106 -69.048,69.341 0,38.225 30.98,69.332 69.048,69.332 38.078,0 69.048,-31.107 69.048,-69.332 0,-38.235 -30.97,-69.341 -69.048,-69.341 M 40.762,1.94 c -0.692,28.841 -25.183,53.343 -54.024,54.035 -19.836,0.419 -39.672,0.629 -59.508,0.629 -19.836,0 -39.661,-0.21 -59.497,-0.629 -28.842,-0.692 -53.343,-25.194 -54.035,-54.035 -0.839,-39.662 -0.839,-79.333 0,-119.005 0.692,-28.842 25.193,-53.343 54.035,-54.035 19.836,-0.42 39.661,-0.629 59.497,-0.629 19.836,0 39.672,0.209 59.508,0.629 28.841,0.692 53.332,25.193 54.024,54.035 0.849,39.672 0.849,79.343 0,119.005 M 0,0 c -8.398,0 -15.202,6.815 -15.202,15.212 0,8.398 6.804,15.202 15.202,15.202 8.408,0 15.212,-6.804 15.212,-15.202 C 15.212,6.815 8.408,0 0,0 m -72.77,-126.899 c -38.068,0 -69.048,31.106 -69.048,69.341 0,38.225 30.98,69.332 69.048,69.332 38.078,0 69.048,-31.107 69.048,-69.332 0,-38.235 -30.97,-69.341 -69.048,-69.341 M 40.762,1.94 c -0.692,28.841 -25.183,53.343 -54.024,54.035 -19.836,0.419 -39.672,0.629 -59.508,0.629 -19.836,0 -39.661,-0.21 -59.497,-0.629 -28.842,-0.692 -53.343,-25.194 -54.035,-54.035 -0.839,-39.662 -0.839,-79.333 0,-119.005 0.692,-28.842 25.193,-53.343 54.035,-54.035 19.836,-0.42 39.661,-0.629 59.497,-0.629 19.836,0 39.672,0.209 59.508,0.629 28.841,0.692 53.332,25.193 54.024,54.035 0.849,39.672 0.849,79.343 0,119.005 M 0,0 c -8.398,0 -15.202,6.815 -15.202,15.212 0,8.398 6.804,15.202 15.202,15.202 8.408,0 15.212,-6.804 15.212,-15.202 C 15.212,6.815 8.408,0 0,0 m -72.77,-126.899 c -38.068,0 -69.048,31.106 -69.048,69.341 0,38.225 30.98,69.332 69.048,69.332 38.078,0 69.048,-31.107 69.048,-69.332 0,-38.235 -30.97,-69.341 -69.048,-69.341 M 40.762,1.94 c -0.692,28.841 -25.183,53.343 -54.024,54.035 -19.836,0.419 -39.672,0.629 -59.508,0.629 -19.836,0 -39.661,-0.21 -59.497,-0.629 -28.842,-0.692 -53.343,-25.194 -54.035,-54.035 -0.839,-39.662 -0.839,-79.333 0,-119.005 0.692,-28.842 25.193,-53.343 54.035,-54.035 19.836,-0.42 39.661,-0.629 59.497,-0.629 19.836,0 39.672,0.209 59.508,0.629 28.841,0.692 53.332,25.193 54.024,54.035 0.849,39.672 0.849,79.343 0,119.005 M 0,0 c -8.398,0 -15.202,6.815 -15.202,15.212 0,8.398 6.804,15.202 15.202,15.202 8.408,0 15.212,-6.804 15.212,-15.202 C 15.212,6.815 8.408,0 0,0 m -72.77,-126.899 c -38.068,0 -69.048,31.106 -69.048,69.341 0,38.225 30.98,69.332 69.048,69.332 38.078,0 69.048,-31.107 69.048,-69.332 0,-38.235 -30.97,-69.341 -69.048,-69.341 M 40.762,1.94 c -0.692,28.841 -25.183,53.343 -54.024,54.035 -19.836,0.419 -39.672,0.629 -59.508,0.629 -19.836,0 -39.661,-0.21 -59.497,-0.629 -28.842,-0.692 -53.343,-25.194 -54.035,-54.035 -0.839,-39.662 -0.839,-79.333 0,-119.005 0.692,-28.842 25.193,-53.343 54.035,-54.035 19.836,-0.42 39.661,-0.629 59.497,-0.629 19.836,0 39.672,0.209 59.508,0.629 28.841,0.692 53.332,25.193 54.024,54.035 0.849,39.672 0.849,79.343 0,119.005 M 0,0 c -8.398,0 -15.202,6.815 -15.202,15.212 0,8.398 6.804,15.202 15.202,15.202 8.408,0 15.212,-6.804 15.212,-15.202 C 15.212,6.815 8.408,0 0,0 m -72.77,-126.899 c -38.068,0 -69.048,31.106 -69.048,69.341 0,38.225 30.98,69.332 69.048,69.332 38.078,0 69.048,-31.107 69.048,-69.332 0,-38.235 -30.97,-69.341 -69.048,-69.341 M 40.762,1.94 c -0.692,28.841 -25.183,53.343 -54.024,54.035 -19.836,0.419 -39.672,0.629 -59.508,0.629 -19.836,0 -39.661,-0.21 -59.497,-0.629 -28.842,-0.692 -53.343,-25.194 -54.035,-54.035 -0.839,-39.662 -0.839,-79.333 0,-119.005 0.692,-28.842 25.193,-53.343 54.035,-54.035 19.836,-0.42 39.661,-0.629 59.497,-0.629 19.836,0 39.672,0.209 59.508,0.629 28.841,0.692 53.332,25.193 54.024,54.035 0.849,39.672 0.849,79.343 0,119.005 M 0,0 c -8.398,0 -15.202,6.815 -15.202,15.212 0,8.398 6.804,15.202 15.202,15.202 8.408,0 15.212,-6.804 15.212,-15.202 C 15.212,6.815 8.408,0 0,0 m -72.77,-126.899 c -38.068,0 -69.048,31.106 -69.048,69.341 0,38.225 30.98,69.332 69.048,69.332 38.078,0 69.048,-31.107 69.048,-69.332 0,-38.235 -30.97,-69.341 -69.048,-69.341 M 40.762,1.94 c -0.692,28.841 -25.183,53.343 -54.024,54.035 -19.836,0.419 -39.672,0.629 -59.508,0.629 -19.836,0 -39.661,-0.21 -59.497,-0.629 -28.842,-0.692 -53.343,-25.194 -54.035,-54.035 -0.839,-39.662 -0.839,-79.333 0,-119.005 0.692,-28.842 25.193,-53.343 54.035,-54.035 19.836,-0.42 39.661,-0.629 59.497,-0.629 19.836,0 39.672,0.209 59.508,0.629 28.841,0.692 53.332,25.193 54.024,54.035 0.849,39.672 0.849,79.343 0,119.005 M 0,0 c -8.398,0 -15.202,6.815 -15.202,15.212 0,8.398 6.804,15.202 15.202,15.202 8.408,0 15.212,-6.804 15.212,-15.202 C 15.212,6.815 8.408,0 0,0 m -72.77,-126.899 c -38.068,0 -69.048,31.106 -69.048,69.341 0,38.225 30.98,69.332 69.048,69.332 38.078,0 69.048,-31.107 69.048,-69.332 0,-38.235 -30.97,-69.341 -69.048,-69.341 M 40.762,1.94 c -0.692,28.841 -25.183,53.343 -54.024,54.035 -19.836,0.419 -39.672,0.629 -59.508,0.629 -19.836,0 -39.661,-0.21 -59.497,-0.629 -28.842,-0.692 -53.343,-25.194 -54.035,-54.035 -0.839,-39.662 -0.839,-79.333 0,-119.005 0.692,-28.842 25.193,-53.343 54.035,-54.035 19.836,-0.42 39.661,-0.629 59.497,-0.629 19.836,0 39.672,0.209 59.508,0.629 28.841,0.692 53.332,25.193 54.024,54.035 0.849,39.672 0.849,79.343 0,119.005 M 0,0 c -8.398,0 -15.202,6.815 -15.202,15.212 0,8.398 6.804,15.202 15.202,15.202 8.408,0 15.212,-6.804 15.212,-15.202 C 15.212,6.815 8.408,0 0,0 m -72.77,-126.899 c -38.068,0 -69.048,31.106 -69.048,69.341 0,38.225 30.98,69.332 69.048,69.332 38.078,0 69.048,-31.107 69.048,-69.332 0,-38.235 -30.97,-69.341 -69.048,-69.341 M 40.762,1.94 c -0.692,28.841 -25.183,53.343 -54.024,54.035 -19.836,0.419 -39.672,0.629 -59.508,0.629 -19.836,0 -39.661,-0.21 -59.497,-0.629 -28.842,-0.692 -53.343,-25.194 -54.035,-54.035 -0.839,-39.662 -0.839,-79.333 0,-119.005 0.692,-28.842 25.193,-53.343 54.035,-54.035 19.836,-0.42 39.661,-0.629 59.497,-0.629 19.836,0 39.672,0.209 59.508,0.629 28.841,0.692 53.332,25.193 54.024,54.035 0.849,39.672 0.849,79.343 0,119.005 M 0,0 c -8.398,0 -15.202,6.815 -15.202,15.212 0,8.398 6.804,15.202 15.202,15.202 8.408,0 15.212,-6.804 15.212,-15.202 C 15.212,6.815 8.408,0 0,0 m -72.77,-126.899 c -38.068,0 -69.048,31.106 -69.048,69.341 0,38.225 30.98,69.332 69.048,69.332 38.078,0 69.048,-31.107 69.048,-69.332 0,-38.235 -30.97,-69.341 -69.048,-69.341 M 40.762,1.94 c -0.692,28.841 -25.183,53.343 -54.024,54.035 -19.836,0.419 -39.672,0.629 -59.508,0.629 -19.836,0 -39.661,-0.21 -59.497,-0.629 -28.842,-0.692 -53.343,-25.194 -54.035,-54.035 -0.839,-39.662 -0.839,-79.333 0,-119.005 0.692,-28.842 25.193,-53.343 54.035,-54.035 19.836,-0.42 39.661,-0.629 59.497,-0.629 19.836,0 39.672,0.209 59.508,0.629 28.841,0.692 53.332,25.193 54.024,54.035 0.849,39.672 0.849,79.343 0,119.005 M 0,0 c -8.398,0 -15.202,6.815 -15.202,15.212 0,8.398 6.804,15.202 15.202,15.202 8.408,0 15.212,-6.804 15.212,-15.202 C 15.212,6.815 8.408,0 0,0 m -72.77,-126.899 c -38.068,0 -69.048,31.106 -69.048,69.341 0,38.225 30.98,69.332 69.048,69.332 38.078,0 69.048,-31.107 69.048,-69.332 0,-38.235 -30.97,-69.341 -69.048,-69.341 M 40.762,1.94 c -0.692,28.841 -25.183,53.343 -54.024,54.035 -19.836,0.419 -39.672,0.629 -59.508,0.629 -19.836,0 -39.661,-0.21 -59.497,-0.629 -28.842,-0.692 -53.343,-25.194 -54.035,-54.035 -0.839,-39.662 -0.839,-79.333 0,-119.005 0.692,-28.842 25.193,-53.343 54.035,-54.035 19.836,-0.42 39.661,-0.629 59.497,-0.629 19.836,0 39.672,0.209 59.508,0.629 28.841,0.692 53.332,25.193 54.024,54.035 0.849,39.672 0.849,79.343 0,119.005 M 0,0 c -8.398,0 -15.202,6.815 -15.202,15.212 0,8.398 6.804,15.202 15.202,15.202 8.408,0 15.212,-6.804 15.212,-15.202 C 15.212,6.815 8.408,0 0,0 m -72.77,-126.899 c -38.068,0 -69.048,31.106 -69.048,69.341 0,38.225 30.98,69.332 69.048,69.332 38.078,0 69.048,-31.107 69.048,-69.332 0,-38.235 -30.97,-69.341 -69.048,-69.341 M 40.762,1.94 c -0.692,28.841 -25.183,53.343 -54.024,54.035 -19.836,0.419 -39.672,0.629 -59.508,0.629 -19.836,0 -39.661,-0.21 -59.497,-0.629 -28.842,-0.692 -53.343,-25.194 -54.035,-54.035 -0.839,-39.662 -0.839,-79.333 0,-119.005 0.692,-28.842 25.193,-53.343 54.035,-54.035 19.836,-0.42 39.661,-0.629 59.497,-0.629 19.836,0 39.672,0.209 59.508,0.629 28.841,0.692 53.332,25.193 54.024,54.035 0.849,39.672 0.849,79.343 0,119.005 M 0,0 c -8.398,0 -15.202,6.815 -15.202,15.212 0,8.398 6.804,15.202 15.202,15.202 8.408,0 15.212,-6.804 15.212,-15.202 C 15.212,6.815 8.408,0 0,0 m -72.77,-126.899 c -38.068,0 -69.048,31.106 -69.048,69.341 0,38.225 30.98,69.332 69.048,69.332 38.078,0 69.048,-31.107 69.048,-69.332 0,-38.235 -30.97,-69.341 -69.048,-69.341 M 40.762,1.94 c -0.692,28.841 -25.183,53.343 -54.024,54.035 -19.836,0.419 -39.672,0.629 -59.508,0.629 -19.836,0 -39.661,-0.21 -59.497,-0.629 -28.842,-0.692 -53.343,-25.194 -54.035,-54.035 -0.839,-39.662 -0.839,-79.333 0,-119.005 0.692,-28.842 25.193,-53.343 54.035,-54.035 19.836,-0.42 39.661,-0.629 59.497,-0.629 19.836,0 39.672,0.209 59.508,0.629 28.841,0.692 53.332,25.193 54.024,54.035 0.849,39.672 0.849,79.343 0,119.005 M 0,0 c -8.398,0 -15.202,6.815 -15.202,15.212 0,8.398 6.804,15.202 15.202,15.202 8.408,0 15.212,-6.804 15.212,-15.202 C 15.212,6.815 8.408,0 0,0 m -72.77,-126.899 c -38.068,0 -69.048,31.106 -69.048,69.341 0,38.225 30.98,69.332 69.048,69.332 38.078,0 69.048,-31.107 69.048,-69.332 0,-38.235 -30.97,-69.341 -69.048,-69.341 M 40.762,1.94 c -0.692,28.841 -25.183,53.343 -54.024,54.035 -19.836,0.419 -39.672,0.629 -59.508,0.629 -19.836,0 -39.661,-0.21 -59.497,-0.629 -28.842,-0.692 -53.343,-25.194 -54.035,-54.035 -0.839,-39.662 -0.839,-79.333 0,-119.005 0.692,-28.842 25.193,-53.343 54.035,-54.035 19.836,-0.42 39.661,-0.629 59.497,-0.629 19.836,0 39.672,0.209 59.508,0.629 28.841,0.692 53.332,25.193 54.024,54.035 0.849,39.672 0.849,79.343 0,119.005 M 0,0 c -8.398,0 -15.202,6.815 -15.202,15.212 0,8.398 6.804,15.202 15.202,15.202 8.408,0 15.212,-6.804 15.212,-15.202 C 15.212,6.815 8.408,0 0,0 m -72.77,-126.899 c -38.068,0 -69.048,31.106 -69.048,69.341 0,38.225 30.98,69.332 69.048,69.332 38.078,0 69.048,-31.107 69.048,-69.332 0,-38.235 -30.97,-69.341 -69.048,-69.341 M 40.762,1.94 c -0.692,28.841 -25.183,53.343 -54.024,54.035 -19.836,0.419 -39.672,0.629 -59.508,0.629 -19.836,0 -39.661,-0.21 -59.497,-0.629 -28.842,-0.692 -53.343,-25.194 -54.035,-54.035 -0.839,-39.662 -0.839,-79.333 0,-119.005 0.692,-28.842 25.193,-53.343 54.035,-54.035 19.836,-0.42 39.661,-0.629 59.497,-0.629 19.836,0 39.672,0.209 59.508,0.629 28.841,0.692 53.332,25.193 54.024,54.035 0.849,39.672 0.849,79.343 0,119.005 M 0,0 c -8.398,0 -15.202,6.815 -15.202,15.212 0,8.398 6.804,15.202 15.202,15.202 8.408,0 15.212,-6.804 15.212,-15.202 C 15.212,6.815 8.408,0 0,0 m -72.77,-126.899 c -38.068,0 -69.048,31.106 -69.048,69.341 0,38.225 30.98,69.332 69.048,69.332 38.078,0 69.048,-31.107 69.048,-69.332 0,-38.235 -30.97,-69.341 -69.048,-69.341 M 40.762,1.94 c -0.692,28.841 -25.183,53.343 -54.024,54.035 -19.836,0.419 -39.672,0.629 -59.508,0.629 -19.836,0 -39.661,-0.21 -59.497,-0.629 -28.842,-0.692 -53.343,-25.194 -54.035,-54.035 -0.839,-39.662 -0.839,-79.333 0,-119.005 0.692,-28.842 25.193,-53.343 54.035,-54.035 19.836,-0.42 39.661,-0.629 59.497,-0.629 19.836,0 39.672,0.209 59.508,0.629 28.841,0.692 53.332,25.193 54.024,54.035 0.849,39.672 0.849,79.343 0,119.005 M 0,0 c -8.398,0 -15.202,6.815 -15.202,15.212 0,8.398 6.804,15.202 15.202,15.202 8.408,0 15.212,-6.804 15.212,-15.202 C 15.212,6.815 8.408,0 0,0 m -72.77,-126.899 c -38.068,0 -69.048,31.106 -69.048,69.341 0,38.225 30.98,69.332 69.048,69.332 38.078,0 69.048,-31.107 69.048,-69.332 0,-38.235 -30.97,-69.341 -69.048,-69.341 M 40.762,1.94 c -0.692,28.841 -25.183,53.343 -54.024,54.035 -19.836,0.419 -39.672,0.629 -59.508,0.629 -19.836,0 -39.661,-0.21 -59.497,-0.629 -28.842,-0.692 -53.343,-25.194 -54.035,-54.035 -0.839,-39.662 -0.839,-79.333 0,-119.005 0.692,-28.842 25.193,-53.343 54.035,-54.035 19.836,-0.42 39.661,-0.629 59.497,-0.629 19.836,0 39.672,0.209 59.508,0.629 28.841,0.692 53.332,25.193 54.024,54.035 0.849,39.672 0.849,79.343 0,119.005 M 0,0 c -8.398,0 -15.202,6.815 -15.202,15.212 0,8.398 6.804,15.202 15.202,15.202 8.408,0 15.212,-6.804 15.212,-15.202 C 15.212,6.815 8.408,0 0,0 m -72.77,-126.899 c -38.068,0 -69.048,31.106 -69.048,69.341 0,38.225 30.98,69.332 69.048,69.332 38.078,0 69.048,-31.107 69.048,-69.332 0,-38.235 -30.97,-69.341 -69.048,-69.341 M 40.762,1.94 c -0.692,28.841 -25.183,53.343 -54.024,54.035 -19.836,0.419 -39.672,0.629 -59.508,0.629 -19.836,0 -39.661,-0.21 -59.497,-0.629 -28.842,-0.692 -53.343,-25.194 -54.035,-54.035 -0.839,-39.662 -0.839,-79.333 0,-119.005 0.692,-28.842 25.193,-53.343 54.035,-54.035 19.836,-0.42 39.661,-0.629 59.497,-0.629 19.836,0 39.672,0.209 59.508,0.629 28.841,0.692 53.332,25.193 54.024,54.035 0.849,39.672 0.849,79.343 0,119.005 M 0,0 c -8.398,0 -15.202,6.815 -15.202,15.212 0,8.398 6.804,15.202 15.202,15.202 8.408,0 15.212,-6.804 15.212,-15.202 C 15.212,6.815 8.408,0 0,0 m -72.77,-126.899 c -38.068,0 -69.048,31.106 -69.048,69.341 0,38.225 30.98,69.332 69.048,69.332 38.078,0 69.048,-31.107 69.048,-69.332 0,-38.235 -30.97,-69.341 -69.048,-69.341 M 40.762,1.94 c -0.692,28.841 -25.183,53.343 -54.024,54.035 -19.836,0.419 -39.672,0.629 -59.508,0.629 -19.836,0 -39.661,-0.21 -59.497,-0.629 -28.842,-0.692 -53.343,-25.194 -54.035,-54.035 -0.839,-39.662 -0.839,-79.333 0,-119.005 0.692,-28.842 25.193,-53.343 54.035,-54.035 19.836,-0.42 39.661,-0.629 59.497,-0.629 19.836,0 39.672,0.209 59.508,0.629 28.841,0.692 53.332,25.193 54.024,54.035 0.849,39.672 0.849,79.343 0,119.005 M 0,0 c -8.398,0 -15.202,6.815 -15.202,15.212 0,8.398 6.804,15.202 15.202,15.202 8.408,0 15.212,-6.804 15.212,-15.202 C 15.212,6.815 8.408,0 0,0 m -72.77,-126.899 c -38.068,0 -69.048,31.106 -69.048,69.341 0,38.225 30.98,69.332 69.048,69.332 38.078,0 69.048,-31.107 69.048,-69.332 0,-38.235 -30.97,-69.341 -69.048,-69.341 m 59.508,182.874 c -19.836,0.419 -39.672,0.629 -59.508,0.629 -19.836,0 -39.661,-0.21 -59.497,-0.629 -28.842,-0.692 -53.343,-25.194 -54.035,-54.035 -0.839,-39.662 -0.839,-79.333 0,-119.005 0.692,-28.842 25.193,-53.343 54.035,-54.035 19.836,-0.42 39.661,-0.629 59.497,-0.629 19.836,0 39.672,0.209 59.508,0.629 28.841,0.692 53.332,25.193 54.024,54.035 0.849,39.672 0.849,79.343 0,119.005 -0.692,28.841 -25.183,53.343 -54.024,54.035 m 74.887,-173.481 v -0.063 c -0.471,-19.322 -8.481,-37.732 -22.561,-51.822 -14.091,-14.08 -32.491,-22.101 -51.823,-22.562 h -0.063 c -19.888,-0.419 -40.06,-0.64 -59.948,-0.64 -19.888,0 -40.049,0.221 -59.948,0.64 h -0.053 c -19.332,0.461 -37.742,8.482 -51.822,22.562 -14.091,14.09 -22.101,32.49 -22.562,51.822 v 0.063 c -0.849,39.777 -0.849,80.109 0,119.896 v 0.053 c 0.461,19.333 8.471,37.732 22.562,51.823 14.09,14.09 32.49,22.1 51.822,22.562 h 0.032 l 0.021,0.01 c 19.888,0.419 40.06,0.629 59.948,0.629 19.899,0 40.06,-0.21 59.948,-0.629 l 0.031,-0.01 h 0.032 C 6.573,76.366 24.973,68.356 39.064,54.266 53.144,40.175 61.164,21.776 61.625,2.443 V 2.39 c 0.85,-39.776 0.85,-80.119 0,-119.896 M -72.77,150.027 c -114.644,0 -207.585,-92.941 -207.585,-207.585 0,-114.654 92.941,-207.585 207.585,-207.585 114.644,0 207.585,92.931 207.585,207.585 0,114.644 -92.941,207.585 -207.585,207.585 M 0,0 c -8.398,0 -15.202,6.815 -15.202,15.212 0,8.398 6.804,15.202 15.202,15.202 8.408,0 15.212,-6.804 15.212,-15.202 C 15.212,6.815 8.408,0 0,0 m -72.77,-126.899 c -38.068,0 -69.048,31.106 -69.048,69.341 0,38.225 30.98,69.332 69.048,69.332 38.078,0 69.048,-31.107 69.048,-69.332 0,-38.235 -30.97,-69.341 -69.048,-69.341 M 40.762,1.94 c -0.692,28.841 -25.183,53.343 -54.024,54.035 -19.836,0.419 -39.672,0.629 -59.508,0.629 -19.836,0 -39.661,-0.21 -59.497,-0.629 -28.842,-0.692 -53.343,-25.194 -54.035,-54.035 -0.839,-39.662 -0.839,-79.333 0,-119.005 0.692,-28.842 25.193,-53.343 54.035,-54.035 19.836,-0.42 39.661,-0.629 59.497,-0.629 19.836,0 39.672,0.209 59.508,0.629 28.841,0.692 53.332,25.193 54.024,54.035 0.849,39.672 0.849,79.343 0,119.005 M 0,0 c -8.398,0 -15.202,6.815 -15.202,15.212 0,8.398 6.804,15.202 15.202,15.202 8.408,0 15.212,-6.804 15.212,-15.202 C 15.212,6.815 8.408,0 0,0 m -72.77,-126.899 c -38.068,0 -69.048,31.106 -69.048,69.341 0,38.225 30.98,69.332 69.048,69.332 38.078,0 69.048,-31.107 69.048,-69.332 0,-38.235 -30.97,-69.341 -69.048,-69.341 M 40.762,1.94 c -0.692,28.841 -25.183,53.343 -54.024,54.035 -19.836,0.419 -39.672,0.629 -59.508,0.629 -19.836,0 -39.661,-0.21 -59.497,-0.629 -28.842,-0.692 -53.343,-25.194 -54.035,-54.035 -0.839,-39.662 -0.839,-79.333 0,-119.005 0.692,-28.842 25.193,-53.343 54.035,-54.035 19.836,-0.42 39.661,-0.629 59.497,-0.629 19.836,0 39.672,0.209 59.508,0.629 28.841,0.692 53.332,25.193 54.024,54.035 0.849,39.672 0.849,79.343 0,119.005 M 0,0 c -8.398,0 -15.202,6.815 -15.202,15.212 0,8.398 6.804,15.202 15.202,15.202 8.408,0 15.212,-6.804 15.212,-15.202 C 15.212,6.815 8.408,0 0,0 m -72.77,-126.899 c -38.068,0 -69.048,31.106 -69.048,69.341 0,38.225 30.98,69.332 69.048,69.332 38.078,0 69.048,-31.107 69.048,-69.332 0,-38.235 -30.97,-69.341 -69.048,-69.341 M 40.762,1.94 c -0.692,28.841 -25.183,53.343 -54.024,54.035 -19.836,0.419 -39.672,0.629 -59.508,0.629 -19.836,0 -39.661,-0.21 -59.497,-0.629 -28.842,-0.692 -53.343,-25.194 -54.035,-54.035 -0.839,-39.662 -0.839,-79.333 0,-119.005 0.692,-28.842 25.193,-53.343 54.035,-54.035 19.836,-0.42 39.661,-0.629 59.497,-0.629 19.836,0 39.672,0.209 59.508,0.629 28.841,0.692 53.332,25.193 54.024,54.035 0.849,39.672 0.849,79.343 0,119.005 M 0,0 c -8.398,0 -15.202,6.815 -15.202,15.212 0,8.398 6.804,15.202 15.202,15.202 8.408,0 15.212,-6.804 15.212,-15.202 C 15.212,6.815 8.408,0 0,0 m -72.77,-126.899 c -38.068,0 -69.048,31.106 -69.048,69.341 0,38.225 30.98,69.332 69.048,69.332 38.078,0 69.048,-31.107 69.048,-69.332 0,-38.235 -30.97,-69.341 -69.048,-69.341 M 40.762,1.94 c -0.692,28.841 -25.183,53.343 -54.024,54.035 -19.836,0.419 -39.672,0.629 -59.508,0.629 -19.836,0 -39.661,-0.21 -59.497,-0.629 -28.842,-0.692 -53.343,-25.194 -54.035,-54.035 -0.839,-39.662 -0.839,-79.333 0,-119.005 0.692,-28.842 25.193,-53.343 54.035,-54.035 19.836,-0.42 39.661,-0.629 59.497,-0.629 19.836,0 39.672,0.209 59.508,0.629 28.841,0.692 53.332,25.193 54.024,54.035 0.849,39.672 0.849,79.343 0,119.005 M 0,0 c -8.398,0 -15.202,6.815 -15.202,15.212 0,8.398 6.804,15.202 15.202,15.202 8.408,0 15.212,-6.804 15.212,-15.202 C 15.212,6.815 8.408,0 0,0 m -72.77,-126.899 c -38.068,0 -69.048,31.106 -69.048,69.341 0,38.225 30.98,69.332 69.048,69.332 38.078,0 69.048,-31.107 69.048,-69.332 0,-38.235 -30.97,-69.341 -69.048,-69.341 M 40.762,1.94 c -0.692,28.841 -25.183,53.343 -54.024,54.035 -19.836,0.419 -39.672,0.629 -59.508,0.629 -19.836,0 -39.661,-0.21 -59.497,-0.629 -28.842,-0.692 -53.343,-25.194 -54.035,-54.035 -0.839,-39.662 -0.839,-79.333 0,-119.005 0.692,-28.842 25.193,-53.343 54.035,-54.035 19.836,-0.42 39.661,-0.629 59.497,-0.629 19.836,0 39.672,0.209 59.508,0.629 28.841,0.692 53.332,25.193 54.024,54.035 0.849,39.672 0.849,79.343 0,119.005 M 0,0 c -8.398,0 -15.202,6.815 -15.202,15.212 0,8.398 6.804,15.202 15.202,15.202 8.408,0 15.212,-6.804 15.212,-15.202 C 15.212,6.815 8.408,0 0,0 m -72.77,-126.899 c -38.068,0 -69.048,31.106 -69.048,69.341 0,38.225 30.98,69.332 69.048,69.332 38.078,0 69.048,-31.107 69.048,-69.332 0,-38.235 -30.97,-69.341 -69.048,-69.341 M 40.762,1.94 c -0.692,28.841 -25.183,53.343 -54.024,54.035 -19.836,0.419 -39.672,0.629 -59.508,0.629 -19.836,0 -39.661,-0.21 -59.497,-0.629 -28.842,-0.692 -53.343,-25.194 -54.035,-54.035 -0.839,-39.662 -0.839,-79.333 0,-119.005 0.692,-28.842 25.193,-53.343 54.035,-54.035 19.836,-0.42 39.661,-0.629 59.497,-0.629 19.836,0 39.672,0.209 59.508,0.629 28.841,0.692 53.332,25.193 54.024,54.035 0.849,39.672 0.849,79.343 0,119.005 M 0,0 c -8.398,0 -15.202,6.815 -15.202,15.212 0,8.398 6.804,15.202 15.202,15.202 8.408,0 15.212,-6.804 15.212,-15.202 C 15.212,6.815 8.408,0 0,0 m -72.77,-126.899 c -38.068,0 -69.048,31.106 -69.048,69.341 0,38.225 30.98,69.332 69.048,69.332 38.078,0 69.048,-31.107 69.048,-69.332 0,-38.235 -30.97,-69.341 -69.048,-69.341 M 40.762,1.94 c -0.692,28.841 -25.183,53.343 -54.024,54.035 -19.836,0.419 -39.672,0.629 -59.508,0.629 -19.836,0 -39.661,-0.21 -59.497,-0.629 -28.842,-0.692 -53.343,-25.194 -54.035,-54.035 -0.839,-39.662 -0.839,-79.333 0,-119.005 0.692,-28.842 25.193,-53.343 54.035,-54.035 19.836,-0.42 39.661,-0.629 59.497,-0.629 19.836,0 39.672,0.209 59.508,0.629 28.841,0.692 53.332,25.193 54.024,54.035 0.849,39.672 0.849,79.343 0,119.005 M 0,0 c -8.398,0 -15.202,6.815 -15.202,15.212 0,8.398 6.804,15.202 15.202,15.202 8.408,0 15.212,-6.804 15.212,-15.202 C 15.212,6.815 8.408,0 0,0 m -72.77,-126.899 c -38.068,0 -69.048,31.106 -69.048,69.341 0,38.225 30.98,69.332 69.048,69.332 38.078,0 69.048,-31.107 69.048,-69.332 0,-38.235 -30.97,-69.341 -69.048,-69.341 M 40.762,1.94 c -0.692,28.841 -25.183,53.343 -54.024,54.035 -19.836,0.419 -39.672,0.629 -59.508,0.629 -19.836,0 -39.661,-0.21 -59.497,-0.629 -28.842,-0.692 -53.343,-25.194 -54.035,-54.035 -0.839,-39.662 -0.839,-79.333 0,-119.005 0.692,-28.842 25.193,-53.343 54.035,-54.035 19.836,-0.42 39.661,-0.629 59.497,-0.629 19.836,0 39.672,0.209 59.508,0.629 28.841,0.692 53.332,25.193 54.024,54.035 0.849,39.672 0.849,79.343 0,119.005 M 0,0 c -8.398,0 -15.202,6.815 -15.202,15.212 0,8.398 6.804,15.202 15.202,15.202 8.408,0 15.212,-6.804 15.212,-15.202 C 15.212,6.815 8.408,0 0,0 m -72.77,-126.899 c -38.068,0 -69.048,31.106 -69.048,69.341 0,38.225 30.98,69.332 69.048,69.332 38.078,0 69.048,-31.107 69.048,-69.332 0,-38.235 -30.97,-69.341 -69.048,-69.341 M 40.762,1.94 c -0.692,28.841 -25.183,53.343 -54.024,54.035 -19.836,0.419 -39.672,0.629 -59.508,0.629 -19.836,0 -39.661,-0.21 -59.497,-0.629 -28.842,-0.692 -53.343,-25.194 -54.035,-54.035 -0.839,-39.662 -0.839,-79.333 0,-119.005 0.692,-28.842 25.193,-53.343 54.035,-54.035 19.836,-0.42 39.661,-0.629 59.497,-0.629 19.836,0 39.672,0.209 59.508,0.629 28.841,0.692 53.332,25.193 54.024,54.035 0.849,39.672 0.849,79.343 0,119.005 M 0,0 c -8.398,0 -15.202,6.815 -15.202,15.212 0,8.398 6.804,15.202 15.202,15.202 8.408,0 15.212,-6.804 15.212,-15.202 C 15.212,6.815 8.408,0 0,0 m -72.77,-126.899 c -38.068,0 -69.048,31.106 -69.048,69.341 0,38.225 30.98,69.332 69.048,69.332 38.078,0 69.048,-31.107 69.048,-69.332 0,-38.235 -30.97,-69.341 -69.048,-69.341 M 40.762,1.94 c -0.692,28.841 -25.183,53.343 -54.024,54.035 -19.836,0.419 -39.672,0.629 -59.508,0.629 -19.836,0 -39.661,-0.21 -59.497,-0.629 -28.842,-0.692 -53.343,-25.194 -54.035,-54.035 -0.839,-39.662 -0.839,-79.333 0,-119.005 0.692,-28.842 25.193,-53.343 54.035,-54.035 19.836,-0.42 39.661,-0.629 59.497,-0.629 19.836,0 39.672,0.209 59.508,0.629 28.841,0.692 53.332,25.193 54.024,54.035 0.849,39.672 0.849,79.343 0,119.005 M 0,0 c -8.398,0 -15.202,6.815 -15.202,15.212 0,8.398 6.804,15.202 15.202,15.202 8.408,0 15.212,-6.804 15.212,-15.202 C 15.212,6.815 8.408,0 0,0 m -72.77,-126.899 c -38.068,0 -69.048,31.106 -69.048,69.341 0,38.225 30.98,69.332 69.048,69.332 38.078,0 69.048,-31.107 69.048,-69.332 0,-38.235 -30.97,-69.341 -69.048,-69.341 M 40.762,1.94 c -0.692,28.841 -25.183,53.343 -54.024,54.035 -19.836,0.419 -39.672,0.629 -59.508,0.629 -19.836,0 -39.661,-0.21 -59.497,-0.629 -28.842,-0.692 -53.343,-25.194 -54.035,-54.035 -0.839,-39.662 -0.839,-79.333 0,-119.005 0.692,-28.842 25.193,-53.343 54.035,-54.035 19.836,-0.42 39.661,-0.629 59.497,-0.629 19.836,0 39.672,0.209 59.508,0.629 28.841,0.692 53.332,25.193 54.024,54.035 0.849,39.672 0.849,79.343 0,119.005 M 0,0 c -8.398,0 -15.202,6.815 -15.202,15.212 0,8.398 6.804,15.202 15.202,15.202 8.408,0 15.212,-6.804 15.212,-15.202 C 15.212,6.815 8.408,0 0,0 m -72.77,-126.899 c -38.068,0 -69.048,31.106 -69.048,69.341 0,38.225 30.98,69.332 69.048,69.332 38.078,0 69.048,-31.107 69.048,-69.332 0,-38.235 -30.97,-69.341 -69.048,-69.341 M 40.762,1.94 c -0.692,28.841 -25.183,53.343 -54.024,54.035 -19.836,0.419 -39.672,0.629 -59.508,0.629 -19.836,0 -39.661,-0.21 -59.497,-0.629 -28.842,-0.692 -53.343,-25.194 -54.035,-54.035 -0.839,-39.662 -0.839,-79.333 0,-119.005 0.692,-28.842 25.193,-53.343 54.035,-54.035 19.836,-0.42 39.661,-0.629 59.497,-0.629 19.836,0 39.672,0.209 59.508,0.629 28.841,0.692 53.332,25.193 54.024,54.035 0.849,39.672 0.849,79.343 0,119.005 M 0,0 c -8.398,0 -15.202,6.815 -15.202,15.212 0,8.398 6.804,15.202 15.202,15.202 8.408,0 15.212,-6.804 15.212,-15.202 C 15.212,6.815 8.408,0 0,0 m -72.77,-126.899 c -38.068,0 -69.048,31.106 -69.048,69.341 0,38.225 30.98,69.332 69.048,69.332 38.078,0 69.048,-31.107 69.048,-69.332 0,-38.235 -30.97,-69.341 -69.048,-69.341 M 40.762,1.94 c -0.692,28.841 -25.183,53.343 -54.024,54.035 -19.836,0.419 -39.672,0.629 -59.508,0.629 -19.836,0 -39.661,-0.21 -59.497,-0.629 -28.842,-0.692 -53.343,-25.194 -54.035,-54.035 -0.839,-39.662 -0.839,-79.333 0,-119.005 0.692,-28.842 25.193,-53.343 54.035,-54.035 19.836,-0.42 39.661,-0.629 59.497,-0.629 19.836,0 39.672,0.209 59.508,0.629 28.841,0.692 53.332,25.193 54.024,54.035 0.849,39.672 0.849,79.343 0,119.005 M 0,0 c -8.398,0 -15.202,6.815 -15.202,15.212 0,8.398 6.804,15.202 15.202,15.202 8.408,0 15.212,-6.804 15.212,-15.202 C 15.212,6.815 8.408,0 0,0 m -72.77,-126.899 c -38.068,0 -69.048,31.106 -69.048,69.341 0,38.225 30.98,69.332 69.048,69.332 38.078,0 69.048,-31.107 69.048,-69.332 0,-38.235 -30.97,-69.341 -69.048,-69.341 M 40.762,1.94 c -0.692,28.841 -25.183,53.343 -54.024,54.035 -19.836,0.419 -39.672,0.629 -59.508,0.629 -19.836,0 -39.661,-0.21 -59.497,-0.629 -28.842,-0.692 -53.343,-25.194 -54.035,-54.035 -0.839,-39.662 -0.839,-79.333 0,-119.005 0.692,-28.842 25.193,-53.343 54.035,-54.035 19.836,-0.42 39.661,-0.629 59.497,-0.629 19.836,0 39.672,0.209 59.508,0.629 28.841,0.692 53.332,25.193 54.024,54.035 0.849,39.672 0.849,79.343 0,119.005 M 0,0 c -8.398,0 -15.202,6.815 -15.202,15.212 0,8.398 6.804,15.202 15.202,15.202 8.408,0 15.212,-6.804 15.212,-15.202 C 15.212,6.815 8.408,0 0,0 m -72.77,-126.899 c -38.068,0 -69.048,31.106 -69.048,69.341 0,38.225 30.98,69.332 69.048,69.332 38.078,0 69.048,-31.107 69.048,-69.332 0,-38.235 -30.97,-69.341 -69.048,-69.341 M 40.762,1.94 c -0.692,28.841 -25.183,53.343 -54.024,54.035 -19.836,0.419 -39.672,0.629 -59.508,0.629 -19.836,0 -39.661,-0.21 -59.497,-0.629 -28.842,-0.692 -53.343,-25.194 -54.035,-54.035 -0.839,-39.662 -0.839,-79.333 0,-119.005 0.692,-28.842 25.193,-53.343 54.035,-54.035 19.836,-0.42 39.661,-0.629 59.497,-0.629 19.836,0 39.672,0.209 59.508,0.629 28.841,0.692 53.332,25.193 54.024,54.035 0.849,39.672 0.849,79.343 0,119.005 M 0,0 c -8.398,0 -15.202,6.815 -15.202,15.212 0,8.398 6.804,15.202 15.202,15.202 8.408,0 15.212,-6.804 15.212,-15.202 C 15.212,6.815 8.408,0 0,0 m -72.77,-126.899 c -38.068,0 -69.048,31.106 -69.048,69.341 0,38.225 30.98,69.332 69.048,69.332 38.078,0 69.048,-31.107 69.048,-69.332 0,-38.235 -30.97,-69.341 -69.048,-69.341 M 40.762,1.94 c -0.692,28.841 -25.183,53.343 -54.024,54.035 -19.836,0.419 -39.672,0.629 -59.508,0.629 -19.836,0 -39.661,-0.21 -59.497,-0.629 -28.842,-0.692 -53.343,-25.194 -54.035,-54.035 -0.839,-39.662 -0.839,-79.333 0,-119.005 0.692,-28.842 25.193,-53.343 54.035,-54.035 19.836,-0.42 39.661,-0.629 59.497,-0.629 19.836,0 39.672,0.209 59.508,0.629 28.841,0.692 53.332,25.193 54.024,54.035 0.849,39.672 0.849,79.343 0,119.005 M 0,0 c -8.398,0 -15.202,6.815 -15.202,15.212 0,8.398 6.804,15.202 15.202,15.202 8.408,0 15.212,-6.804 15.212,-15.202 C 15.212,6.815 8.408,0 0,0 m -72.77,-126.899 c -38.068,0 -69.048,31.106 -69.048,69.341 0,38.225 30.98,69.332 69.048,69.332 38.078,0 69.048,-31.107 69.048,-69.332 0,-38.235 -30.97,-69.341 -69.048,-69.341 M 40.762,1.94 c -0.692,28.841 -25.183,53.343 -54.024,54.035 -19.836,0.419 -39.672,0.629 -59.508,0.629 -19.836,0 -39.661,-0.21 -59.497,-0.629 -28.842,-0.692 -53.343,-25.194 -54.035,-54.035 -0.839,-39.662 -0.839,-79.333 0,-119.005 0.692,-28.842 25.193,-53.343 54.035,-54.035 19.836,-0.42 39.661,-0.629 59.497,-0.629 19.836,0 39.672,0.209 59.508,0.629 28.841,0.692 53.332,25.193 54.024,54.035 0.849,39.672 0.849,79.343 0,119.005 M 0,0 c -8.398,0 -15.202,6.815 -15.202,15.212 0,8.398 6.804,15.202 15.202,15.202 8.408,0 15.212,-6.804 15.212,-15.202 C 15.212,6.815 8.408,0 0,0 m -72.77,-126.899 c -38.068,0 -69.048,31.106 -69.048,69.341 0,38.225 30.98,69.332 69.048,69.332 38.078,0 69.048,-31.107 69.048,-69.332 0,-38.235 -30.97,-69.341 -69.048,-69.341 M 40.762,1.94 c -0.692,28.841 -25.183,53.343 -54.024,54.035 -19.836,0.419 -39.672,0.629 -59.508,0.629 -19.836,0 -39.661,-0.21 -59.497,-0.629 -28.842,-0.692 -53.343,-25.194 -54.035,-54.035 -0.839,-39.662 -0.839,-79.333 0,-119.005 0.692,-28.842 25.193,-53.343 54.035,-54.035 19.836,-0.42 39.661,-0.629 59.497,-0.629 19.836,0 39.672,0.209 59.508,0.629 28.841,0.692 53.332,25.193 54.024,54.035 0.849,39.672 0.849,79.343 0,119.005 M 0,0 c -8.398,0 -15.202,6.815 -15.202,15.212 0,8.398 6.804,15.202 15.202,15.202 8.408,0 15.212,-6.804 15.212,-15.202 C 15.212,6.815 8.408,0 0,0 m -72.77,-126.899 c -38.068,0 -69.048,31.106 -69.048,69.341 0,38.225 30.98,69.332 69.048,69.332 38.078,0 69.048,-31.107 69.048,-69.332 0,-38.235 -30.97,-69.341 -69.048,-69.341 M 40.762,1.94 c -0.692,28.841 -25.183,53.343 -54.024,54.035 -19.836,0.419 -39.672,0.629 -59.508,0.629 -19.836,0 -39.661,-0.21 -59.497,-0.629 -28.842,-0.692 -53.343,-25.194 -54.035,-54.035 -0.839,-39.662 -0.839,-79.333 0,-119.005 0.692,-28.842 25.193,-53.343 54.035,-54.035 19.836,-0.42 39.661,-0.629 59.497,-0.629 19.836,0 39.672,0.209 59.508,0.629 28.841,0.692 53.332,25.193 54.024,54.035 0.849,39.672 0.849,79.343 0,119.005 M 0,0 c -8.398,0 -15.202,6.815 -15.202,15.212 0,8.398 6.804,15.202 15.202,15.202 8.408,0 15.212,-6.804 15.212,-15.202 C 15.212,6.815 8.408,0 0,0 m -72.77,-126.899 c -38.068,0 -69.048,31.106 -69.048,69.341 0,38.225 30.98,69.332 69.048,69.332 38.078,0 69.048,-31.107 69.048,-69.332 0,-38.235 -30.97,-69.341 -69.048,-69.341 M 40.762,1.94 c -0.692,28.841 -25.183,53.343 -54.024,54.035 -19.836,0.419 -39.672,0.629 -59.508,0.629 -19.836,0 -39.661,-0.21 -59.497,-0.629 -28.842,-0.692 -53.343,-25.194 -54.035,-54.035 -0.839,-39.662 -0.839,-79.333 0,-119.005 0.692,-28.842 25.193,-53.343 54.035,-54.035 19.836,-0.42 39.661,-0.629 59.497,-0.629 19.836,0 39.672,0.209 59.508,0.629 28.841,0.692 53.332,25.193 54.024,54.035 0.849,39.672 0.849,79.343 0,119.005 M 0,0 c -8.398,0 -15.202,6.815 -15.202,15.212 0,8.398 6.804,15.202 15.202,15.202 8.408,0 15.212,-6.804 15.212,-15.202 C 15.212,6.815 8.408,0 0,0 m -72.77,-126.899 c -38.068,0 -69.048,31.106 -69.048,69.341 0,38.225 30.98,69.332 69.048,69.332 38.078,0 69.048,-31.107 69.048,-69.332 0,-38.235 -30.97,-69.341 -69.048,-69.341 M 40.762,1.94 c -0.692,28.841 -25.183,53.343 -54.024,54.035 -19.836,0.419 -39.672,0.629 -59.508,0.629 -19.836,0 -39.661,-0.21 -59.497,-0.629 -28.842,-0.692 -53.343,-25.194 -54.035,-54.035 -0.839,-39.662 -0.839,-79.333 0,-119.005 0.692,-28.842 25.193,-53.343 54.035,-54.035 19.836,-0.42 39.661,-0.629 59.497,-0.629 19.836,0 39.672,0.209 59.508,0.629 28.841,0.692 53.332,25.193 54.024,54.035 0.849,39.672 0.849,79.343 0,119.005 M 0,0 c -8.398,0 -15.202,6.815 -15.202,15.212 0,8.398 6.804,15.202 15.202,15.202 8.408,0 15.212,-6.804 15.212,-15.202 C 15.212,6.815 8.408,0 0,0 m -72.77,-126.899 c -38.068,0 -69.048,31.106 -69.048,69.341 0,38.225 30.98,69.332 69.048,69.332 38.078,0 69.048,-31.107 69.048,-69.332 0,-38.235 -30.97,-69.341 -69.048,-69.341 M 40.762,1.94 c -0.692,28.841 -25.183,53.343 -54.024,54.035 -19.836,0.419 -39.672,0.629 -59.508,0.629 -19.836,0 -39.661,-0.21 -59.497,-0.629 -28.842,-0.692 -53.343,-25.194 -54.035,-54.035 -0.839,-39.662 -0.839,-79.333 0,-119.005 0.692,-28.842 25.193,-53.343 54.035,-54.035 19.836,-0.42 39.661,-0.629 59.497,-0.629 19.836,0 39.672,0.209 59.508,0.629 28.841,0.692 53.332,25.193 54.024,54.035 0.849,39.672 0.849,79.343 0,119.005 M 0,0 c -8.398,0 -15.202,6.815 -15.202,15.212 0,8.398 6.804,15.202 15.202,15.202 8.408,0 15.212,-6.804 15.212,-15.202 C 15.212,6.815 8.408,0 0,0 m -72.77,-126.899 c -38.068,0 -69.048,31.106 -69.048,69.341 0,38.225 30.98,69.332 69.048,69.332 38.078,0 69.048,-31.107 69.048,-69.332 0,-38.235 -30.97,-69.341 -69.048,-69.341 M 40.762,1.94 c -0.692,28.841 -25.183,53.343 -54.024,54.035 -19.836,0.419 -39.672,0.629 -59.508,0.629 -19.836,0 -39.661,-0.21 -59.497,-0.629 -28.842,-0.692 -53.343,-25.194 -54.035,-54.035 -0.839,-39.662 -0.839,-79.333 0,-119.005 0.692,-28.842 25.193,-53.343 54.035,-54.035 19.836,-0.42 39.661,-0.629 59.497,-0.629 19.836,0 39.672,0.209 59.508,0.629 28.841,0.692 53.332,25.193 54.024,54.035 0.849,39.672 0.849,79.343 0,119.005 M 0,0 c -8.398,0 -15.202,6.815 -15.202,15.212 0,8.398 6.804,15.202 15.202,15.202 8.408,0 15.212,-6.804 15.212,-15.202 C 15.212,6.815 8.408,0 0,0 m -72.77,-126.899 c -38.068,0 -69.048,31.106 -69.048,69.341 0,38.225 30.98,69.332 69.048,69.332 38.078,0 69.048,-31.107 69.048,-69.332 0,-38.235 -30.97,-69.341 -69.048,-69.341 M 40.762,1.94 c -0.692,28.841 -25.183,53.343 -54.024,54.035 -19.836,0.419 -39.672,0.629 -59.508,0.629 -19.836,0 -39.661,-0.21 -59.497,-0.629 -28.842,-0.692 -53.343,-25.194 -54.035,-54.035 -0.839,-39.662 -0.839,-79.333 0,-119.005 0.692,-28.842 25.193,-53.343 54.035,-54.035 19.836,-0.42 39.661,-0.629 59.497,-0.629 19.836,0 39.672,0.209 59.508,0.629 28.841,0.692 53.332,25.193 54.024,54.035 0.849,39.672 0.849,79.343 0,119.005 M 0,0 c -8.398,0 -15.202,6.815 -15.202,15.212 0,8.398 6.804,15.202 15.202,15.202 8.408,0 15.212,-6.804 15.212,-15.202 C 15.212,6.815 8.408,0 0,0 m -72.77,-126.899 c -38.068,0 -69.048,31.106 -69.048,69.341 0,38.225 30.98,69.332 69.048,69.332 38.078,0 69.048,-31.107 69.048,-69.332 0,-38.235 -30.97,-69.341 -69.048,-69.341 M 40.762,1.94 c -0.692,28.841 -25.183,53.343 -54.024,54.035 -19.836,0.419 -39.672,0.629 -59.508,0.629 -19.836,0 -39.661,-0.21 -59.497,-0.629 -28.842,-0.692 -53.343,-25.194 -54.035,-54.035 -0.839,-39.662 -0.839,-79.333 0,-119.005 0.692,-28.842 25.193,-53.343 54.035,-54.035 19.836,-0.42 39.661,-0.629 59.497,-0.629 19.836,0 39.672,0.209 59.508,0.629 28.841,0.692 53.332,25.193 54.024,54.035 0.849,39.672 0.849,79.343 0,119.005 M 0,0 c -8.398,0 -15.202,6.815 -15.202,15.212 0,8.398 6.804,15.202 15.202,15.202 8.408,0 15.212,-6.804 15.212,-15.202 C 15.212,6.815 8.408,0 0,0 m -72.77,-126.899 c -38.068,0 -69.048,31.106 -69.048,69.341 0,38.225 30.98,69.332 69.048,69.332 38.078,0 69.048,-31.107 69.048,-69.332 0,-38.235 -30.97,-69.341 -69.048,-69.341 M 40.762,1.94 c -0.692,28.841 -25.183,53.343 -54.024,54.035 -19.836,0.419 -39.672,0.629 -59.508,0.629 -19.836,0 -39.661,-0.21 -59.497,-0.629 -28.842,-0.692 -53.343,-25.194 -54.035,-54.035 -0.839,-39.662 -0.839,-79.333 0,-119.005 0.692,-28.842 25.193,-53.343 54.035,-54.035 19.836,-0.42 39.661,-0.629 59.497,-0.629 19.836,0 39.672,0.209 59.508,0.629 28.841,0.692 53.332,25.193 54.024,54.035 0.849,39.672 0.849,79.343 0,119.005 M 0,0 c -8.398,0 -15.202,6.815 -15.202,15.212 0,8.398 6.804,15.202 15.202,15.202 8.408,0 15.212,-6.804 15.212,-15.202 C 15.212,6.815 8.408,0 0,0 m -72.77,-126.899 c -38.068,0 -69.048,31.106 -69.048,69.341 0,38.225 30.98,69.332 69.048,69.332 38.078,0 69.048,-31.107 69.048,-69.332 0,-38.235 -30.97,-69.341 -69.048,-69.341 M 40.762,1.94 c -0.692,28.841 -25.183,53.343 -54.024,54.035 -19.836,0.419 -39.672,0.629 -59.508,0.629 -19.836,0 -39.661,-0.21 -59.497,-0.629 -28.842,-0.692 -53.343,-25.194 -54.035,-54.035 -0.839,-39.662 -0.839,-79.333 0,-119.005 0.692,-28.842 25.193,-53.343 54.035,-54.035 19.836,-0.42 39.661,-0.629 59.497,-0.629 19.836,0 39.672,0.209 59.508,0.629 28.841,0.692 53.332,25.193 54.024,54.035 0.849,39.672 0.849,79.343 0,119.005 M 0,0 c -8.398,0 -15.202,6.815 -15.202,15.212 0,8.398 6.804,15.202 15.202,15.202 8.408,0 15.212,-6.804 15.212,-15.202 C 15.212,6.815 8.408,0 0,0 m -72.77,-126.899 c -38.068,0 -69.048,31.106 -69.048,69.341 0,38.225 30.98,69.332 69.048,69.332 38.078,0 69.048,-31.107 69.048,-69.332 0,-38.235 -30.97,-69.341 -69.048,-69.341 M 40.762,1.94 c -0.692,28.841 -25.183,53.343 -54.024,54.035 -19.836,0.419 -39.672,0.629 -59.508,0.629 -19.836,0 -39.661,-0.21 -59.497,-0.629 -28.842,-0.692 -53.343,-25.194 -54.035,-54.035 -0.839,-39.662 -0.839,-79.333 0,-119.005 0.692,-28.842 25.193,-53.343 54.035,-54.035 19.836,-0.42 39.661,-0.629 59.497,-0.629 19.836,0 39.672,0.209 59.508,0.629 28.841,0.692 53.332,25.193 54.024,54.035 0.849,39.672 0.849,79.343 0,119.005 M 0,0 c -8.398,0 -15.202,6.815 -15.202,15.212 0,8.398 6.804,15.202 15.202,15.202 8.408,0 15.212,-6.804 15.212,-15.202 C 15.212,6.815 8.408,0 0,0 m -72.77,-126.899 c -38.068,0 -69.048,31.106 -69.048,69.341 0,38.225 30.98,69.332 69.048,69.332 38.078,0 69.048,-31.107 69.048,-69.332 0,-38.235 -30.97,-69.341 -69.048,-69.341 M 40.762,1.94 c -0.692,28.841 -25.183,53.343 -54.024,54.035 -19.836,0.419 -39.672,0.629 -59.508,0.629 -19.836,0 -39.661,-0.21 -59.497,-0.629 -28.842,-0.692 -53.343,-25.194 -54.035,-54.035 -0.839,-39.662 -0.839,-79.333 0,-119.005 0.692,-28.842 25.193,-53.343 54.035,-54.035 19.836,-0.42 39.661,-0.629 59.497,-0.629 19.836,0 39.672,0.209 59.508,0.629 28.841,0.692 53.332,25.193 54.024,54.035 0.849,39.672 0.849,79.343 0,119.005 M 0,0 c -8.398,0 -15.202,6.815 -15.202,15.212 0,8.398 6.804,15.202 15.202,15.202 8.408,0 15.212,-6.804 15.212,-15.202 C 15.212,6.815 8.408,0 0,0 m -72.77,-126.899 c -38.068,0 -69.048,31.106 -69.048,69.341 0,38.225 30.98,69.332 69.048,69.332 38.078,0 69.048,-31.107 69.048,-69.332 0,-38.235 -30.97,-69.341 -69.048,-69.341 M 40.762,1.94 c -0.692,28.841 -25.183,53.343 -54.024,54.035 -19.836,0.419 -39.672,0.629 -59.508,0.629 -19.836,0 -39.661,-0.21 -59.497,-0.629 -28.842,-0.692 -53.343,-25.194 -54.035,-54.035 -0.839,-39.662 -0.839,-79.333 0,-119.005 0.692,-28.842 25.193,-53.343 54.035,-54.035 19.836,-0.42 39.661,-0.629 59.497,-0.629 19.836,0 39.672,0.209 59.508,0.629 28.841,0.692 53.332,25.193 54.024,54.035 0.849,39.672 0.849,79.343 0,119.005"
           style="fill:#002850;fill-opacity:1;fill-rule:nonzero;stroke:none"
           id="path55" />
      </g>
    </g>
  </g>
</svg>
