<?xml version="1.0" encoding="UTF-8" standalone="no"?>
<!-- Created with Inkscape (http://www.inkscape.org/) -->

<svg
   width="146.463mm"
   height="146.27mm"
   viewBox="0 0 146.463 146.27"
   version="1.1"
   id="svg5"
   inkscape:version="1.1.2 (b8e25be833, 2022-02-05)"
   sodipodi:docname="iwetec_xing.svg"
   xmlns:inkscape="http://www.inkscape.org/namespaces/inkscape"
   xmlns:sodipodi="http://sodipodi.sourceforge.net/DTD/sodipodi-0.dtd"
   xmlns="http://www.w3.org/2000/svg"
   xmlns:svg="http://www.w3.org/2000/svg">
  <sodipodi:namedview
     id="namedview7"
     pagecolor="#ffffff"
     bordercolor="#666666"
     borderopacity="1.0"
     inkscape:pageshadow="2"
     inkscape:pageopacity="0.0"
     inkscape:pagecheckerboard="0"
     inkscape:document-units="mm"
     showgrid="false"
     inkscape:zoom="0.32"
     inkscape:cx="1792.1875"
     inkscape:cy="846.875"
     inkscape:window-width="1920"
     inkscape:window-height="986"
     inkscape:window-x="-11"
     inkscape:window-y="-11"
     inkscape:window-maximized="1"
     inkscape:current-layer="g57"
     height="200mm"
     width="146.463mm" />
  <defs
     id="defs2" />
  <g
     inkscape:label="Layer 1"
     inkscape:groupmode="layer"
     id="layer1">
    <g
       id="g57"
       transform="matrix(0.35277777,0,0,-0.35277777,173.49736,143.27899)">
      <g
         id="g231"
         transform="translate(-176.66504,309.43692)">
        <path
           d="m 0,0 -76.712,-139.627 c -0.493,-0.891 -0.493,-1.982 -0.021,-2.883 l 47.87,-90.688 c 1.07,-2.023 -0.398,-4.466 -2.684,-4.466 h -43.897 c -1.121,0 -2.159,0.629 -2.684,1.625 l -49.38,93.529 c -0.471,0.901 -0.461,1.992 0.032,2.883 L -49.16,2.935 c 0.535,0.965 1.552,1.573 2.663,1.573 H -2.663 C -0.356,4.508 1.111,2.034 0,0 m -161.948,-164.873 h -43.781 c -2.328,0 -3.795,2.506 -2.653,4.54 l 37.072,65.683 c 0.503,0.891 0.524,1.992 0.042,2.904 l -22.74,43.498 c -1.059,2.034 0.409,4.456 2.694,4.456 h 43.908 c 1.132,0 2.17,-0.629 2.694,-1.636 l 24.219,-46.318 c 0.471,-0.912 0.461,-2.013 -0.053,-2.904 l -38.749,-68.682 c -0.535,-0.954 -1.552,-1.541 -2.653,-1.541 m 57.747,255.885 c -114.644,0 -207.585,-92.941 -207.585,-207.585 0,-114.654 92.941,-207.585 207.585,-207.585 114.654,0 207.585,92.931 207.585,207.585 0,114.644 -92.931,207.585 -207.585,207.585"
           style="fill:#002850;fill-opacity:1;fill-rule:nonzero;stroke:none"
           id="path233" />
      </g>
    </g>
  </g>
</svg>
