<?xml version="1.0" encoding="UTF-8" standalone="no"?>
<!-- Created with Inkscape (http://www.inkscape.org/) -->

<svg
   width="146.463mm"
   height="146.27mm"
   viewBox="0 0 146.463 146.27"
   version="1.1"
   id="svg5"
   inkscape:version="1.1.2 (b8e25be833, 2022-02-05)"
   sodipodi:docname="iwetec_youtube.svg"
   xmlns:inkscape="http://www.inkscape.org/namespaces/inkscape"
   xmlns:sodipodi="http://sodipodi.sourceforge.net/DTD/sodipodi-0.dtd"
   xmlns="http://www.w3.org/2000/svg"
   xmlns:svg="http://www.w3.org/2000/svg">
  <sodipodi:namedview
     id="namedview7"
     pagecolor="#ffffff"
     bordercolor="#666666"
     borderopacity="1.0"
     inkscape:pageshadow="2"
     inkscape:pageopacity="0.0"
     inkscape:pagecheckerboard="0"
     inkscape:document-units="mm"
     showgrid="false"
     inkscape:zoom="0.69664703"
     inkscape:cx="-104.78764"
     inkscape:cy="561.25984"
     inkscape:window-width="2880"
     inkscape:window-height="1526"
     inkscape:window-x="2869"
     inkscape:window-y="-11"
     inkscape:window-maximized="1"
     inkscape:current-layer="g57"
     height="200mm"
     width="146.463mm" />
  <defs
     id="defs2" />
  <g
     inkscape:label="Layer 1"
     inkscape:groupmode="layer"
     id="layer1">
    <g
       id="g57"
       transform="matrix(0.35277777,0,0,-0.35277777,173.49736,143.27899)">
      <g
         id="g17"
         transform="translate(-273.8981,217.72148)">
        <path
           d="M 0,0 35.394,-20.444 0,-40.867 -35.394,-61.311 v 81.744 z"
           style="fill:#1a1a1a;fill-opacity:1;fill-rule:nonzero;stroke:none"
           id="path19" />
      </g>
      <g
         id="g29"
         transform="translate(-146.70499,150.02566)">
        <path
           d="m 0,0 c -0.818,-22.457 -21.115,-42.754 -44.516,-44.411 -61.069,-3.931 -122.391,-3.931 -183.471,0 -23.39,1.657 -43.687,21.954 -44.505,44.411 -1.038,31.536 -1.038,62.978 0,94.525 0.818,22.446 21.115,42.754 44.505,44.4 61.08,3.931 122.402,3.931 183.471,0 C -21.115,137.279 -0.818,116.971 0,94.525 1.038,62.978 1.038,31.547 0,0 m -136.241,254.847 c -114.654,0 -207.585,-92.941 -207.585,-207.585 0,-114.654 92.931,-207.585 207.585,-207.585 114.644,0 207.585,92.931 207.585,207.585 0,114.644 -92.941,207.585 -207.585,207.585"
           style="fill:#002850;fill-opacity:1;fill-rule:nonzero;stroke:none"
           id="path31" />
      </g>
      <g
         id="g33"
         transform="translate(-238.50378,197.27747)">
        <path
           d="M 0,0 -35.394,-20.423 -70.789,-40.867 V 40.877 L -35.394,20.444 Z"
           style="fill:#1a1a1a;fill-opacity:1;fill-rule:nonzero;stroke:none"
           id="path35" />
      </g>
      <g
         id="g37"
         transform="translate(-238.50378,197.27747)">
        <path
           d="M 0,0 -35.394,-20.423 -70.789,-40.867 V 40.877 L -35.394,20.444 Z"
           style="fill:#1a1a1a;fill-opacity:1;fill-rule:nonzero;stroke:none"
           id="path39" />
      </g>
    </g>
  </g>
</svg>
